<?xml version="1.0" encoding="UTF-8"?>
<svg width="191" height="191" viewBox="0 0 191 191" fill="none" xmlns="http://www.w3.org/2000/svg">
<g id="&#60;Group&#62;" opacity="0.1">
<g id="&#60;Group&#62;_2">
<g id="&#60;Group&#62;_3">
<path id="&#60;Path&#62;" d="M176.3 144.4C149.3 189.4 90.9998 203.9 45.9998 176.9C1.0998 149.8 -13.4002 91.4998 13.5998 46.4998C40.5998 1.59978 98.9998 -12.9002 143.9 14.0998C188.8 41.0998 203.4 99.4998 176.3 144.4Z" fill="#888888"/>
</g>
</g>
<g id="&#60;Group&#62;_4">
<g id="&#60;Group&#62;_5">
<path id="&#60;Path&#62;_2" d="M86.7999 0.599777C87.1999 2.49978 87.5999 4.09978 87.8999 5.29978C83.1999 6.09978 77.9999 7.19978 75.0999 11.0998C72.1999 14.9998 72.6999 20.3998 71.4999 25.0998C71.1999 26.4998 70.4999 27.9998 69.1999 28.5998C68.1999 29.0998 66.8999 28.8998 65.6999 28.5998C58.7999 27.0998 50.8999 24.8998 45.2999 29.1998C42.0999 31.6998 40.0999 36.2998 35.9999 36.7998C31.6999 37.2998 28.5999 32.8998 27.3999 28.6998C43.3999 12.2998 64.6999 2.59978 86.7999 0.599777Z" fill="#888888"/>
</g>
</g>
<g id="&#60;Group&#62;_6">
<g id="&#60;Group&#62;_7">
<path id="&#60;Path&#62;_3" d="M48.3998 48.3998C48.1998 48.4998 47.9997 48.3998 47.7997 48.2998C39.1997 43.9998 51.1998 29.1998 58.3998 30.4998C62.7998 31.2998 63.7997 35.9998 61.4997 39.4998C58.5997 43.7998 52.5998 44.2998 49.1998 47.8998C48.9998 48.0998 48.6998 48.3998 48.3998 48.3998Z" fill="#888888"/>
</g>
</g>
<g id="&#60;Group&#62;_8">
<g id="&#60;Group&#62;_9">
<path id="&#60;Path&#62;_4" d="M24.7998 61.4998C23.5998 61.8998 22.3998 60.9998 21.5998 59.9998C18.9998 56.4998 18.7998 51.2998 21.1998 47.6998C25.3998 41.3998 37.1998 40.7998 38.7998 49.5998C39.3998 52.6998 37.5998 56.1998 34.5998 57.2998C32.8998 57.7998 31.0998 57.6998 29.3998 58.2998C28.0998 58.7998 26.9998 59.8998 25.9998 60.7998C25.5998 61.0998 25.2998 61.3998 24.7998 61.4998Z" fill="#888888"/>
</g>
</g>
<g id="&#60;Group&#62;_10">
<g id="&#60;Group&#62;_11">
<path id="&#60;Path&#62;_5" d="M24.7997 88.8998C23.4997 88.9998 22.2997 87.7998 21.0997 88.2998C19.9997 88.6998 19.5997 90.1998 18.4997 90.3998C17.4997 90.4998 16.8997 89.2998 16.5997 88.3998C15.7997 85.1998 16.1997 81.7998 17.7997 78.9998C18.0997 78.4998 18.3998 77.9998 18.8998 77.6998C20.1998 76.6998 22.7997 76.6998 22.7997 76.6998C24.4997 76.6998 25.9997 78.0998 26.6997 79.5998C27.4997 81.1998 27.4998 82.9998 27.3998 84.7998C27.2998 86.5998 26.5997 88.7998 24.7997 88.8998Z" fill="#888888"/>
</g>
</g>
<g id="&#60;Group&#62;_12">
<g id="&#60;Group&#62;_13">
<path id="&#60;Path&#62;_6" d="M36.1999 74.9998C41.2999 70.9998 48.9999 75.4998 52.1999 79.8998C54.6999 83.2998 56.4999 93.4998 49.0999 92.5998C46.5999 92.1998 44.2999 90.7998 42.9999 88.6998C42.0999 87.1998 41.5999 85.3998 40.1999 84.1998C40.1332 84.1331 40.0332 84.0664 39.8999 83.9998C38.3999 82.8998 36.4999 82.6998 35.2999 81.2998C33.6999 79.5998 34.2999 76.4998 36.1999 74.9998Z" fill="#888888"/>
</g>
</g>
<g id="&#60;Group&#62;_14">
<g id="&#60;Group&#62;_15">
<path id="&#60;Path&#62;_7" d="M37.2997 90.8998C37.2997 91.7998 37.0998 92.6998 36.4998 93.1998C35.9998 93.6998 35.1997 93.7998 34.5997 93.6998C32.5997 93.2998 31.1998 91.0998 31.6998 89.1998C32.1998 87.5998 33.8998 86.5998 35.4998 86.6998C36.5998 87.7998 37.2997 89.3998 37.2997 90.8998Z" fill="#888888"/>
</g>
</g>
<g id="&#60;Group&#62;_16">
<g id="&#60;Group&#62;_17">
<path id="&#60;Path&#62;_8" d="M36.4999 86.8998C36.1665 86.7664 35.8332 86.6998 35.4999 86.6998C35.3999 86.5998 35.2999 86.3998 35.0999 86.2998L36.4999 86.8998Z" fill="#888888"/>
</g>
</g>
<g id="&#60;Group&#62;_18">
<g id="&#60;Group&#62;_19">
<path id="&#60;Path&#62;_9" d="M10.1999 64.3998C11.0999 66.3998 11.6999 68.6998 10.9999 70.7998C10.3999 72.4998 9.09988 73.7998 8.29988 75.3998C5.59988 80.6998 9.0999 88.0998 5.1999 92.5998C3.8999 93.9998 2.0999 94.7998 0.199903 95.2998C0.0999033 83.3998 2.39989 71.3998 6.99989 59.8998C8.39989 61.0998 9.3999 62.6998 10.1999 64.3998Z" fill="#888888"/>
</g>
</g>
<g id="&#60;Group&#62;_20">
<g id="&#60;Group&#62;_21">
<path id="&#60;Path&#62;_10" d="M6.79987 130C3.59987 121.9 1.49985 113.4 0.599854 104.7C5.49985 100.4 9.8999 96.6998 17.3999 97.8998C21.3999 98.5998 25.2999 101.4 25.8999 105.4C26.1999 107.5 25.5999 109.5 25.0999 111.4C24.4999 113.533 23.8999 115.666 23.2999 117.8C23.0999 118.6 22.7999 119.5 22.1999 120.1C20.3999 122.1 17.0999 120.3 14.3999 120.6C12.3999 120.8 10.6999 122.3 9.59985 124C8.49985 125.6 7.79985 127.6 7.09985 129.4C6.96652 129.6 6.86653 129.8 6.79987 130Z" fill="#888888"/>
</g>
</g>
<g id="&#60;Group&#62;_22">
<g id="&#60;Group&#62;_23">
<path id="&#60;Path&#62;_11" d="M36.1998 121.9C35.6998 120.7 35.8998 119.3 35.7998 118C35.5998 116.2 34.6997 114.5 34.0997 112.8C33.5997 111 33.4998 108.9 34.7998 107.5C35.0998 107.1 35.6998 106.8 36.1998 106.8C36.8998 106.8 37.3998 107.2 37.8998 107.6C40.5998 110 42.3997 113.4 44.0997 116.6L43.1998 115.5C43.8998 116.6 44.3998 117.9 44.3998 119.2C44.2998 121.2 43.0998 123.3 41.1998 124C39.3998 124.7 36.8998 123.8 36.1998 121.9Z" fill="#888888"/>
</g>
</g>
<g id="&#60;Group&#62;_24">
<g id="&#60;Group&#62;_25">
<path id="&#60;Path&#62;_12" d="M135.3 32.5998C134.8 32.1998 134.2 31.7998 133.6 31.5998C131.7 31.1998 130.3 33.2998 128.5 33.9998C126.7 34.5998 124.6 33.4998 123.5 31.7998C118.4 23.4998 130.6 17.7998 137.3 21.0998C144 24.4998 145.8 40.3998 135.3 32.5998Z" fill="#888888"/>
</g>
</g>
<g id="&#60;Group&#62;_26">
<g id="&#60;Group&#62;_27">
<path id="&#60;Path&#62;_13" d="M123.9 78.9998C123 75.9998 122.4 72.7998 122.2 69.5998C122 67.0998 122.1 64.2998 123.4 62.0998C125.6 58.3998 130.5 57.1998 134.8 56.8998C138.6 56.6998 142.6 56.8998 145.8 58.7998C147.8 60.0998 149.4 61.9998 151.2 63.6998C154.2 66.3998 157.8 68.4998 160.8 71.1998C162.9 72.9998 164.7 75.3998 165.6 77.9998C169.7 84.3998 171.6 92.0998 170.8 99.5998C170.5 102.9 169.5 106.3 167 108.4C162.2 112.2 154.8 109.4 149.5 112.5C144.9 115.2 143.1 121.7 138 123.3C133.1 124.8 128.3 120.7 125 116.8C120.4 111.2 116.2 103.8 118.8 96.9998C120.5 92.4998 125.1 88.9998 125.1 84.0998C125.1 82.3998 124.5 80.6998 123.9 78.9998Z" fill="#888888"/>
</g>
</g>
<g id="&#60;Group&#62;_28">
<g id="&#60;Group&#62;_29">
<path id="&#60;Path&#62;_14" d="M169.9 67.2998C167.566 65.8331 165.266 64.3664 163 62.8998C162.4 62.3998 161.7 61.9998 161.3 61.2998C160.4 59.7998 161.5 57.5998 163.2 56.9998C164.9 56.3998 166.8 56.9998 168.2 58.1998C169.5 59.3998 170.4 60.9998 171.3 62.5998L169.7 60.5998C171 62.5998 171.1 65.2998 169.9 67.2998Z" fill="#888888"/>
</g>
</g>
<g id="&#60;Group&#62;_30">
<g id="&#60;Group&#62;_31">
<path id="&#60;Path&#62;_15" d="M178.7 84.3998C178.3 85.7998 176.6 86.9998 175.4 86.1998C174.7 85.7998 174.4 84.9998 174.1 84.2998C173.366 82.2998 172.633 80.3331 171.9 78.3998C171.7 77.7998 171.4 77.0998 171.6 76.4998C171.9 75.6998 172.9 75.2998 173.8 75.3998C174.6 75.5998 175.3 76.1998 175.9 76.8998C177.5 78.7998 178 81.2998 178.6 83.7998L178.1 80.1998C178.6 81.4998 179.1 82.9998 178.7 84.3998Z" fill="#888888"/>
</g>
</g>
<g id="&#60;Group&#62;_32">
<g id="&#60;Group&#62;_33">
<path id="&#60;Path&#62;_16" d="M49.5998 64.9998C46.7998 63.2998 49.3998 58.8998 52.2998 60.5998C55.0998 62.2998 52.4998 66.6998 49.5998 64.9998Z" fill="#888888"/>
</g>
</g>
<g id="&#60;Group&#62;_34">
<g id="&#60;Group&#62;_35">
<path id="&#60;Path&#62;_17" d="M58.2998 49.8998C61.8998 52.0998 58.4999 57.7998 54.8999 55.5998C51.1999 53.3998 54.5998 47.6998 58.2998 49.8998Z" fill="#888888"/>
</g>
</g>
<g id="&#60;Group&#62;_36">
<g id="&#60;Group&#62;_37">
<path id="&#60;Path&#62;_18" d="M60.3998 77.3998C57.2998 71.3998 56.4998 64.4998 61.8998 59.0998C64.8998 56.0998 69.6998 54.5998 72.5998 58.5998C75.4998 62.5998 73.6998 67.3998 71.6998 71.1998C69.9998 74.4998 70.8998 75.9998 71.5998 79.2998C72.0998 81.1998 72.3998 83.2998 71.7998 85.1998C70.6998 88.6998 66.4998 90.8998 63.3998 88.2998C60.5998 86.0998 60.4998 81.2998 60.3998 77.3998Z" fill="#888888"/>
</g>
</g>
<g id="&#60;Group&#62;_38">
<g id="&#60;Group&#62;_39">
<path id="&#60;Path&#62;_19" d="M39.4998 96.6998C41.7998 96.9998 44.7997 97.6998 46.7997 99.2998C47.0664 99.4331 47.3331 99.5998 47.5997 99.7998C49.7997 101.4 51.6998 104.2 50.1998 106.9C48.9998 109.2 45.9998 109.8 43.6998 108.4C42.5998 107.8 41.9998 106.7 41.1998 105.8C40.1998 104.5 39.0997 103.5 37.7997 102.6C35.3997 101 36.0998 96.1998 39.4998 96.6998Z" fill="#888888"/>
</g>
</g>
<g id="&#60;Group&#62;_40">
<g id="&#60;Group&#62;_41">
<path id="&#60;Path&#62;_20" d="M53.6999 99.9998C53.1999 99.5998 52.8999 98.9998 52.7999 98.2998C52.2999 96.5998 54.3999 94.8998 56.0999 95.8998C57.1999 96.5998 57.7999 97.7998 57.3999 99.0998C56.6999 100.7 54.9999 101.2 53.6999 99.9998Z" fill="#888888"/>
</g>
</g>
</g>
</svg> 