<svg width="191" height="191" viewBox="0 0 191 191" fill="none" xmlns="http://www.w3.org/2000/svg">
<g id="&#60;Group&#62;" opacity="0.1">
<g id="&#60;Group&#62;_2">
<g id="&#60;Group&#62;_3">
<path id="&#60;Path&#62;" d="M176.3 144.4C149.3 189.4 90.9998 203.9 45.9998 176.9C1.0998 149.8 -13.4002 91.4998 13.5998 46.4998C40.5998 1.59978 98.9998 -12.9002 143.9 14.0998C188.8 41.0998 203.4 99.4998 176.3 144.4Z" fill="#EBEBEB"/>
</g>
</g>
<g id="&#60;Group&#62;_4">
<g id="&#60;Group&#62;_5">
<path id="&#60;Path&#62;_2" d="M86.7999 0.599777C87.1999 2.49978 87.5999 4.09978 87.8999 5.29978C83.1999 6.09978 77.9999 7.19978 75.0999 11.0998C72.1999 14.9998 72.6999 20.3998 71.4999 25.0998C71.1999 26.4998 70.4999 27.9998 69.1999 28.5998C68.1999 29.0998 66.8999 28.8998 65.6999 28.5998C58.7999 27.0998 50.8999 24.8998 45.2999 29.1998C42.0999 31.6998 40.0999 36.2998 35.9999 36.7998C31.6999 37.2998 28.5999 32.8998 27.3999 28.6998C43.3999 12.2998 64.6999 2.59978 86.7999 0.599777Z" fill="#E0E0E0"/>
</g>
</g>
<g id="&#60;Group&#62;_6">
<g id="&#60;Group&#62;_7">
<path id="&#60;Path&#62;_3" d="M48.3998 48.3998C48.1998 48.4998 47.9997 48.3998 47.7997 48.2998C39.1997 43.9998 51.1998 29.1998 58.3998 30.4998C62.7998 31.2998 63.7997 35.9998 61.4997 39.4998C58.5997 43.7998 52.5998 44.2998 49.1998 47.8998C48.9998 48.0998 48.6998 48.3998 48.3998 48.3998Z" fill="#E0E0E0"/>
</g>
</g>
<g id="&#60;Group&#62;_8">
<g id="&#60;Group&#62;_9">
<path id="&#60;Path&#62;_4" d="M24.7998 61.4998C23.5998 61.8998 22.3998 60.9998 21.5998 59.9998C18.9998 56.4998 18.7998 51.2998 21.1998 47.6998C25.3998 41.3998 37.1998 40.7998 38.7998 49.5998C39.3998 52.6998 37.5998 56.1998 34.5998 57.2998C32.8998 57.7998 31.0998 57.6998 29.3998 58.2998C28.0998 58.7998 26.9998 59.8998 25.9998 60.7998C25.5998 61.0998 25.2998 61.3998 24.7998 61.4998Z" fill="#E0E0E0"/>
</g>
</g>
<g id="&#60;Group&#62;_10">
<g id="&#60;Group&#62;_11">
<path id="&#60;Path&#62;_5" d="M24.7997 88.8998C23.4997 88.9998 22.2997 87.7998 21.0997 88.2998C19.9997 88.6998 19.5997 90.1998 18.4997 90.3998C17.4997 90.4998 16.8997 89.2998 16.5997 88.3998C15.7997 85.1998 16.1997 81.7998 17.7997 78.9998C18.0997 78.4998 18.3998 77.9998 18.8998 77.6998C20.1998 76.6998 22.7997 76.6998 22.7997 76.6998C24.4997 76.6998 25.9997 78.0998 26.6997 79.5998C27.4997 81.1998 27.4998 82.9998 27.3998 84.7998C27.2998 86.5998 26.5997 88.7998 24.7997 88.8998Z" fill="#E0E0E0"/>
</g>
</g>
<g id="&#60;Group&#62;_12">
<g id="&#60;Group&#62;_13">
<path id="&#60;Path&#62;_6" d="M36.1999 74.9998C41.2999 70.9998 48.9999 75.4998 52.1999 79.8998C54.6999 83.2998 56.4999 93.4998 49.0999 92.5998C46.5999 92.1998 44.2999 90.7998 42.9999 88.6998C42.0999 87.1998 41.5999 85.3998 40.1999 84.1998C40.1332 84.1331 40.0332 84.0664 39.8999 83.9998C38.3999 82.8998 36.4999 82.6998 35.2999 81.2998C33.6999 79.5998 34.2999 76.4998 36.1999 74.9998Z" fill="#E0E0E0"/>
</g>
</g>
<g id="&#60;Group&#62;_14">
<g id="&#60;Group&#62;_15">
<path id="&#60;Path&#62;_7" d="M37.2997 90.8998C37.2997 91.7998 37.0998 92.6998 36.4998 93.1998C35.9998 93.6998 35.1997 93.7998 34.5997 93.6998C32.5997 93.2998 31.1998 91.0998 31.6998 89.1998C32.1998 87.5998 33.8998 86.5998 35.4998 86.6998C36.5998 87.7998 37.2997 89.3998 37.2997 90.8998Z" fill="#E0E0E0"/>
</g>
</g>
<g id="&#60;Group&#62;_16">
<g id="&#60;Group&#62;_17">
<path id="&#60;Path&#62;_8" d="M36.4999 86.8998C36.1665 86.7664 35.8332 86.6998 35.4999 86.6998C35.3999 86.5998 35.2999 86.3998 35.0999 86.2998L36.4999 86.8998Z" fill="#E0E0E0"/>
</g>
</g>
<g id="&#60;Group&#62;_18">
<g id="&#60;Group&#62;_19">
<path id="&#60;Path&#62;_9" d="M10.1999 64.3998C11.0999 66.3998 11.6999 68.6998 10.9999 70.7998C10.3999 72.4998 9.09988 73.7998 8.29988 75.3998C5.59988 80.6998 9.0999 88.0998 5.1999 92.5998C3.8999 93.9998 2.0999 94.7998 0.199903 95.2998C0.0999033 83.3998 2.39989 71.3998 6.99989 59.8998C8.39989 61.0998 9.3999 62.6998 10.1999 64.3998Z" fill="#E0E0E0"/>
</g>
</g>
<g id="&#60;Group&#62;_20">
<g id="&#60;Group&#62;_21">
<path id="&#60;Path&#62;_10" d="M6.79987 130C3.59987 121.9 1.49985 113.4 0.599854 104.7C5.49985 100.4 9.8999 96.6998 17.3999 97.8998C21.3999 98.5998 25.2999 101.4 25.8999 105.4C26.1999 107.5 25.5999 109.5 25.0999 111.4C24.4999 113.533 23.8999 115.666 23.2999 117.8C23.0999 118.6 22.7999 119.5 22.1999 120.1C20.3999 122.1 17.0999 120.3 14.3999 120.6C12.3999 120.8 10.6999 122.3 9.59985 124C8.49985 125.6 7.79985 127.6 7.09985 129.4C6.96652 129.6 6.86653 129.8 6.79987 130Z" fill="#E0E0E0"/>
</g>
</g>
<g id="&#60;Group&#62;_22">
<g id="&#60;Group&#62;_23">
<path id="&#60;Path&#62;_11" d="M36.1998 121.9C35.6998 120.7 35.8998 119.3 35.7998 118C35.5998 116.2 34.6997 114.5 34.0997 112.8C33.5997 111 33.4998 108.9 34.7998 107.5C35.0998 107.1 35.6998 106.8 36.1998 106.8C36.8998 106.8 37.3998 107.2 37.8998 107.6C40.5998 110 42.3997 113.4 44.0997 116.6L43.1998 115.5C43.8998 116.6 44.3998 117.9 44.3998 119.2C44.2998 121.2 43.0998 123.3 41.1998 124C39.3998 124.7 36.8998 123.8 36.1998 121.9Z" fill="#E0E0E0"/>
</g>
</g>
<g id="&#60;Group&#62;_24">
<g id="&#60;Group&#62;_25">
<path id="&#60;Path&#62;_12" d="M135.3 32.5998C134.8 32.1998 134.2 31.7998 133.6 31.5998C131.7 31.1998 130.3 33.2998 128.5 33.9998C126.7 34.5998 124.6 33.4998 123.5 31.7998C118.4 23.4998 130.6 17.7998 137.3 21.0998C144 24.4998 145.8 40.3998 135.3 32.5998Z" fill="#E0E0E0"/>
</g>
</g>
<g id="&#60;Group&#62;_26">
<g id="&#60;Group&#62;_27">
<path id="&#60;Path&#62;_13" d="M123.9 78.9998C123 75.9998 122.4 72.7998 122.2 69.5998C122 67.0998 122.1 64.2998 123.4 62.0998C125.6 58.3998 130.5 57.1998 134.8 56.8998C138.6 56.6998 142.6 56.8998 145.8 58.7998C147.8 60.0998 149.4 61.9998 151.2 63.6998C154.2 66.3998 157.8 68.4998 160.8 71.1998C162.9 72.9998 164.7 75.3998 165.6 77.9998C169.7 84.3998 171.6 92.0998 170.8 99.5998C170.5 102.9 169.5 106.3 167 108.4C162.2 112.2 154.8 109.4 149.5 112.5C144.9 115.2 143.1 121.7 138 123.3C133.1 124.8 128.3 120.7 125 116.8C120.4 111.2 116.2 103.8 118.8 96.9998C120.5 92.4998 125.1 88.9998 125.1 84.0998C125.1 82.3998 124.5 80.6998 123.9 78.9998Z" fill="#E0E0E0"/>
</g>
</g>
<g id="&#60;Group&#62;_28">
<g id="&#60;Group&#62;_29">
<path id="&#60;Path&#62;_14" d="M169.9 67.2998C167.566 65.8331 165.266 64.3664 163 62.8998C162.4 62.3998 161.7 61.9998 161.3 61.2998C160.4 59.7998 161.5 57.5998 163.2 56.9998C164.9 56.3998 166.8 56.9998 168.2 58.1998C169.5 59.3998 170.4 60.9998 171.3 62.5998L169.7 60.5998C171 62.5998 171.1 65.2998 169.9 67.2998Z" fill="#E0E0E0"/>
</g>
</g>
<g id="&#60;Group&#62;_30">
<g id="&#60;Group&#62;_31">
<path id="&#60;Path&#62;_15" d="M178.7 84.3998C178.3 85.7998 176.6 86.9998 175.4 86.1998C174.7 85.7998 174.4 84.9998 174.1 84.2998C173.366 82.2998 172.633 80.3331 171.9 78.3998C171.7 77.7998 171.4 77.0998 171.6 76.4998C171.9 75.6998 172.9 75.2998 173.8 75.3998C174.6 75.5998 175.3 76.1998 175.9 76.8998C177.5 78.7998 178 81.2998 178.6 83.7998L178.1 80.1998C178.6 81.4998 179.1 82.9998 178.7 84.3998Z" fill="#E0E0E0"/>
</g>
</g>
<g id="&#60;Group&#62;_32">
<g id="&#60;Group&#62;_33">
<path id="&#60;Path&#62;_16" d="M49.5998 64.9998C46.7998 63.2998 49.3998 58.8998 52.2998 60.5998C55.0998 62.2998 52.4998 66.6998 49.5998 64.9998Z" fill="#E0E0E0"/>
</g>
</g>
<g id="&#60;Group&#62;_34">
<g id="&#60;Group&#62;_35">
<path id="&#60;Path&#62;_17" d="M58.2998 49.8998C61.8998 52.0998 58.4999 57.7998 54.8999 55.5998C51.1999 53.3998 54.5998 47.6998 58.2998 49.8998Z" fill="#E0E0E0"/>
</g>
</g>
<g id="&#60;Group&#62;_36">
<g id="&#60;Group&#62;_37">
<path id="&#60;Path&#62;_18" d="M60.3998 77.3998C57.2998 71.3998 56.4998 64.4998 61.8998 59.0998C64.8998 56.0998 69.6998 54.5998 72.5998 58.5998C75.4998 62.5998 73.6998 67.3998 71.6998 71.1998C69.9998 74.4998 70.8998 75.9998 71.5998 79.2998C72.0998 81.1998 72.3998 83.2998 71.7998 85.1998C70.6998 88.6998 66.4998 90.8998 63.3998 88.2998C60.5998 86.0998 60.4998 81.2998 60.3998 77.3998Z" fill="#E0E0E0"/>
</g>
</g>
<g id="&#60;Group&#62;_38">
<g id="&#60;Group&#62;_39">
<path id="&#60;Path&#62;_19" d="M39.4998 96.6998C41.7998 96.9998 44.7997 97.6998 46.7997 99.2998C47.0664 99.4331 47.3331 99.5998 47.5997 99.7998C49.7997 101.4 51.6998 104.2 50.1998 106.9C48.9998 109.2 45.9998 109.8 43.6998 108.4C42.5998 107.8 41.9998 106.7 41.1998 105.8C40.1998 104.5 39.0997 103.5 37.7997 102.6C35.3997 101 36.0998 96.1998 39.4998 96.6998Z" fill="#E0E0E0"/>
</g>
</g>
<g id="&#60;Group&#62;_40">
<g id="&#60;Group&#62;_41">
<path id="&#60;Path&#62;_20" d="M53.6999 99.9998C53.1999 99.5998 52.8999 98.9998 52.7999 98.2998C52.2999 96.5998 54.3999 94.8998 56.0999 95.8998C57.1999 96.5998 57.7999 97.7998 57.3999 99.0998C56.6999 100.7 54.9999 101.2 53.6999 99.9998Z" fill="#E0E0E0"/>
</g>
</g>
<g id="&#60;Group&#62;_42">
<g id="&#60;Group&#62;_43">
<path id="&#60;Path&#62;_21" d="M108.6 90.8998C104 89.4998 103.7 84.4998 103.2 80.4998C102.7 76.5998 101.6 71.9998 105.1 69.0998C108.6 66.2998 113.4 68.0998 115.7 71.4998C117.9 74.7998 118.5 79.5998 117.5 83.3998C117.3 84.0998 117 84.7998 116.6 85.2998C116.533 85.6998 116.433 86.0664 116.3 86.3998C115.2 89.5998 112 92.0998 108.6 90.8998Z" fill="#E0E0E0"/>
</g>
</g>
<g id="&#60;Group&#62;_44">
<g id="&#60;Group&#62;_45">
<path id="&#60;Path&#62;_22" d="M107.2 101.5C107.067 101.166 107 100.8 107 100.4C107 100.333 107 100.266 107 100.2C106.6 98.9998 107 97.6998 108 96.6998C109 95.4998 111.2 95.5998 112.2 96.7998C113.7 98.5998 114.2 101.2 112.4 103C110.6 104.7 107.9 103.7 107.2 101.5Z" fill="#E0E0E0"/>
</g>
</g>
<g id="&#60;Group&#62;_46">
<g id="&#60;Group&#62;_47">
<path id="&#60;Path&#62;_23" d="M98.0998 102.2C94.7998 101.9 93.6999 98.8998 92.6999 96.1998C91.4999 93.3998 89.9999 90.4998 89.3999 87.4998C88.9999 84.9998 89.3998 82.1998 91.5998 80.7998C93.6998 79.3998 96.3999 80.1998 97.6999 82.1998C99.2999 84.5998 99.1999 87.6998 99.6999 90.3998C99.8332 90.7998 99.9332 91.1664 99.9999 91.4998C100.067 91.5664 100.133 91.5998 100.2 91.5998C103.4 94.4998 104.6 103 98.0998 102.2Z" fill="#E0E0E0"/>
</g>
</g>
<g id="&#60;Group&#62;_48">
<g id="&#60;Group&#62;_49">
<path id="&#60;Path&#62;_24" d="M189.1 81.3998C184.8 79.7998 180.9 77.0998 178.7 72.8998C176 67.7998 174.8 59.2998 177.7 53.9998C177.6 52.3998 177.8 50.8998 178.4 49.5998C183.8 59.4998 187.4 70.2998 189.1 81.3998Z" fill="#E0E0E0"/>
</g>
</g>
<g id="&#60;Group&#62;_50">
<g id="&#60;Group&#62;_51">
<path id="&#60;Path&#62;_25" d="M152.2 138.8C152 138.7 151.8 138.7 151.6 138.6C149.5 141.1 146.2 142.9 143.1 142.6C142.1 143.7 140.4 144 139.3 142.7C138.2 141.4 137.7 140 137.8 138.6C137.3 137 137.4 135.2 138.1 133.7C139.5 130.8 142 129.8 144.4 128.1C144.467 128.033 144.533 128 144.6 128C145.7 126.8 146.8 125.6 147.6 124.3C148.1 123.5 148.6 122.7 149.2 122C151.3 120 155 120.8 156.9 122.9C157.167 123.166 157.433 123.466 157.7 123.8C158.9 124.1 159.3 125.8 159.3 127.2C159.7 128.3 160 129.5 160.3 130.7L159.3 128.3C159.3 130.6 159.1 132.9 158.1 135C157.1 137.3 154.7 139.2 152.2 138.8Z" fill="#E0E0E0"/>
</g>
</g>
<g id="&#60;Group&#62;_52">
<g id="&#60;Group&#62;_53">
<path id="&#60;Path&#62;_26" d="M122.5 47.1998C125.6 47.2998 127 50.6998 125.4 53.1998C124.7 54.1998 123.6 54.7998 122.5 55.4998C122.233 55.6331 121.966 55.7998 121.7 55.9998C121.6 56.1998 121.5 56.3998 121.4 56.4998C121 57.5998 120.5 58.5998 119.6 59.2998C117.6 60.9998 113.7 59.8998 114 56.8998C114.2 54.9998 114.9 53.3998 116.2 51.9998C116.266 51.9331 116.333 51.8331 116.4 51.6998C117.4 49.1998 119.6 47.0998 122.5 47.1998Z" fill="#E0E0E0"/>
</g>
</g>
<g id="&#60;Group&#62;_54">
<g id="&#60;Group&#62;_55">
<path id="&#60;Path&#62;_27" d="M130.9 160.5C131.9 155.7 137.5 155.5 141 153.6C144.7 151.6 145.3 145.8 150.2 145.5C153.7 145.3 155.7 148.6 155.1 151.8C154.6 155.3 152.5 158.6 149.6 161.1C146.4 165.7 141.6 169.2 136 167.8C132.9 167.1 130.2 163.8 130.9 160.5Z" fill="#E0E0E0"/>
</g>
</g>
<g id="&#60;Group&#62;_56">
<g id="&#60;Group&#62;_57">
<path id="&#60;Path&#62;_28" d="M161.8 136.7C163 135 166.2 135 166.6 137.4C166.9 139.4 167 141.4 166.4 143.4C165.8 145.2 164.3 147.4 162.2 147.4C162.066 147.4 161.933 147.366 161.8 147.3C160.8 147.6 159.7 147.5 158.7 147.1C156.3 146.1 155.3 143.3 156.3 140.9C156.8 139.8 157.6 138.8 158.7 138.3C159.8 137.8 161.1 137.8 161.8 136.7Z" fill="#E0E0E0"/>
</g>
</g>
<g id="&#60;Group&#62;_58">
<g id="&#60;Group&#62;_59">
<path id="&#60;Path&#62;_29" d="M163 127.4C162.9 126.5 163.3 125.8 164.1 125.3C164.8 124.9 165.6 125.2 166.2 125.7C167 126.3 166.9 127.1 166.8 128C166.7 128.9 165.5 129.5 164.6 129.3C163.6 129.2 163 128.4 163 127.4Z" fill="#E0E0E0"/>
</g>
</g>
<g id="&#60;Group&#62;_60">
<g id="&#60;Group&#62;_61">
<path id="&#60;Path&#62;_30" d="M172.3 147.7C175.7 141 174.6 136 173.3 129C172.7 125.3 172.3 121.4 174 117.8C176.7 111.9 183 109.6 189.2 108.3C187.5 120.6 183.3 132.8 176.5 144.1C175.1 146.433 173.633 148.666 172.1 150.8C171.7 149.8 171.7 148.7 172.3 147.7Z" fill="#E0E0E0"/>
</g>
</g>
<g id="&#60;Group&#62;_62">
<g id="&#60;Group&#62;_63">
<path id="&#60;Path&#62;_31" d="M181.4 104.9C179.5 105.7 177.4 105.4 176.3 103.4C176.3 103.4 176.3 103.366 176.3 103.3C175.966 102.966 175.7 102.566 175.5 102.1C174.9 100.4 175.6 98.7998 177.1 97.7998C177.9 97.1998 178.7 96.8998 179.6 96.5998C182.7 95.2998 186.7 93.6998 190.1 93.9998C190.1 97.0664 190 100.166 189.8 103.3C186.9 103.3 184.1 103.8 181.4 104.9Z" fill="#E0E0E0"/>
</g>
</g>
<g id="&#60;Group&#62;_64">
<g id="&#60;Group&#62;_65">
<path id="&#60;Path&#62;_32" d="M182.2 85.0998C183 83.7998 185.2 83.3998 185.9 84.9998C186.033 85.2664 186.133 85.5664 186.2 85.8998C186.266 85.9664 186.333 86.0331 186.4 86.0998C186.8 86.7998 186.8 87.4998 186.6 88.0998C186.533 88.6998 186.3 89.2998 185.9 89.8998C185.7 90.0998 185.5 90.2664 185.3 90.3998C185.233 90.5331 185.133 90.6664 185 90.7998C184.3 91.3998 183.1 91.4998 182.4 90.6998C181.5 89.5998 180.8 88.4998 181.1 87.0998C181.2 86.2998 181.6 85.5998 182.2 85.0998Z" fill="#E0E0E0"/>
</g>
</g>
<g id="&#60;Group&#62;_66">
<g id="&#60;Group&#62;_67">
<path id="&#60;Path&#62;_33" d="M171.8 114.5C171.1 115.2 170.5 115.7 169.5 115.8C168 118.8 164.3 121.3 161.8 118.6C160.3 117 161.1 114.7 162.6 113.5C164.4 112.2 167 111.6 169 110.7C171.4 109.8 173.7 112.5 171.8 114.5Z" fill="#E0E0E0"/>
</g>
</g>
<g id="&#60;Group&#62;_68">
<g id="&#60;Group&#62;_69">
<path id="&#60;Path&#62;_34" d="M23.1998 65.5998C24.3998 63.5998 26.3998 63.2998 28.5998 63.3998C30.6998 63.5998 32.6998 63.4998 34.5998 62.4998C37.0998 61.2998 39.3998 63.8998 38.1998 66.1998C36.9998 68.5998 34.5998 70.0998 31.9998 70.5998C29.8998 70.9998 27.1998 71.1998 25.5998 69.6998C25.0664 69.4998 24.5331 69.2331 23.9998 68.8998C22.8998 68.1998 22.4998 66.6998 23.1998 65.5998Z" fill="#E0E0E0"/>
</g>
</g>
<g id="&#60;Group&#62;_70">
<g id="&#60;Group&#62;_71">
<path id="&#60;Path&#62;_35" d="M18.8998 44.3998C17.2998 46.0998 15.0998 47.4998 12.7998 47.8998C13.1331 47.3664 13.4665 46.8331 13.7998 46.2998C16.5998 41.5998 19.7998 37.1998 23.2998 33.1998C23.2998 33.2664 23.3332 33.3664 23.3998 33.4998C24.3998 37.4998 21.5998 41.5998 18.8998 44.3998Z" fill="#E0E0E0"/>
</g>
</g>
<g id="&#60;Group&#62;_72">
<g id="&#60;Group&#62;_73">
<path id="&#60;Path&#62;_36" d="M44.9998 146.8C44.3998 143.4 47.9998 141 50.7998 140.2C54.9998 139 58.7998 140.1 62.5998 137.6C65.5998 135.7 68.6998 133 72.4998 133.3C75.1998 133.6 77.6998 135.4 78.2998 138.1C78.6998 140.7 77.6998 142.9 75.9998 144.8C75.2998 147.1 73.8998 149.2 71.7998 150.9C67.3998 154.4 61.3999 154.7 56.3999 152.6C51.6999 153.3 45.8998 151.7 44.9998 146.8Z" fill="#E0E0E0"/>
</g>
</g>
<g id="&#60;Group&#62;_74">
<g id="&#60;Group&#62;_75">
<path id="&#60;Path&#62;_37" d="M57.5998 135.3C56.5998 134.3 56.5999 132.4 57.3999 131.2C58.2999 129.6 60.3999 128.6 62.1999 129.2C62.8999 129.2 63.5998 129.4 64.2998 130.1C66.4998 132.4 64.0998 135.8 61.4998 136.3C60.1998 136.5 58.5998 136.3 57.5998 135.3Z" fill="#E0E0E0"/>
</g>
</g>
<g id="&#60;Group&#62;_76">
<g id="&#60;Group&#62;_77">
<path id="&#60;Path&#62;_38" d="M78.9999 151.9C78.2999 151.7 77.3999 151 77.2999 150.2C77.0999 148.2 77.5999 146.4 78.9999 144.9C80.3999 143.5 82.5998 144.4 83.0998 146.1C84.0998 147.1 84.3999 148.6 83.6999 149.9C82.7999 151.6 80.8999 152.4 78.9999 151.9Z" fill="#E0E0E0"/>
</g>
</g>
</g>
</svg>
