<svg width="128" height="147" viewBox="0 0 128 147" fill="none" xmlns="http://www.w3.org/2000/svg">
<g id="&#60;Group&#62;" opacity="0.11">
<g id="&#60;Group&#62;_2">
<g id="&#60;Group&#62;_3">
<g id="&#60;Group&#62;_4">
<path id="&#60;Path&#62;" d="M39.6992 100C46.3659 91.9333 53.0326 83.9 59.6992 75.9C60.7992 74.7 58.7992 73.1 57.7992 74.4C51.1326 82.4 44.4659 90.4 37.7992 98.4C36.7992 99.6 38.6992 101.2 39.6992 100Z" fill="#E0E0E0"/>
</g>
</g>
</g>
<g id="&#60;Group&#62;_5">
<g id="&#60;Group&#62;_6">
<g id="&#60;Group&#62;_7">
<path id="&#60;Path&#62;_2" d="M44.8992 104.3C51.5659 96.3 58.2325 88.2667 64.8992 80.2C65.9992 79 63.9992 77.4 62.9992 78.7C56.3326 86.7 49.6659 94.7 42.9992 102.7C41.9992 104 43.8992 105.5 44.8992 104.3Z" fill="#E0E0E0"/>
</g>
</g>
</g>
<g id="&#60;Group&#62;_8">
<g id="&#60;Group&#62;_9">
<path id="&#60;Path&#62;_3" d="M0.699219 125.4L26.5992 146.9L58.5992 108.4L33.3992 87.4L32.6992 86.9L0.699219 125.4Z" fill="#E0E0E0"/>
</g>
</g>
<g id="&#60;Group&#62;_10">
<g id="&#60;Group&#62;_11">
<path id="&#60;Path&#62;_4" d="M4.09922 125.1L26.2992 143.5L55.0992 108.8L32.9992 90.3L4.09922 125.1Z" fill="white"/>
</g>
</g>
<g id="&#60;Group&#62;_12">
<g id="&#60;Group&#62;_13">
<path id="&#60;Path&#62;_5" d="M35.6992 134.3L36.9992 132.7L12.6992 112.8L11.3992 114.4L35.6992 134.3Z" fill="#E0E0E0"/>
</g>
</g>
<g id="&#60;Group&#62;_14">
<g id="&#60;Group&#62;_15">
<path id="&#60;Path&#62;_6" d="M45.3992 99.3L43.6992 98L13.8992 134.6L15.4992 135.9L45.3992 99.3Z" fill="#E0E0E0"/>
</g>
</g>
<g id="&#60;Group&#62;_16">
<g id="&#60;Group&#62;_17">
<path id="&#60;Path&#62;_7" d="M45.7992 121.9L47.1992 120.3L22.7992 100.4L21.4992 102L45.7992 121.9Z" fill="#E0E0E0"/>
</g>
</g>
<g id="&#60;Group&#62;_18">
<g id="&#60;Group&#62;_19">
<g id="&#60;Group&#62;_20">
<path id="&#60;Path&#62;_8" d="M88.6992 47C82.0326 55 75.3659 63 68.6992 71C67.5992 72.2 69.5992 73.8 70.5992 72.6C77.2659 64.6 83.9326 56.5667 90.5992 48.5C91.5992 47.3 89.6992 45.7 88.6992 47Z" fill="#E0E0E0"/>
</g>
</g>
</g>
<g id="&#60;Group&#62;_21">
<g id="&#60;Group&#62;_22">
<g id="&#60;Group&#62;_23">
<path id="&#60;Path&#62;_9" d="M83.4992 42.6C76.8326 50.6667 70.1659 58.7 63.4992 66.7C62.3992 67.9 64.3992 69.5 65.3992 68.3C72.0659 60.2333 78.7326 52.2 85.3992 44.2C86.3992 43 84.4992 41.4 83.4992 42.6Z" fill="#E0E0E0"/>
</g>
</g>
</g>
<g id="&#60;Group&#62;_24">
<g id="&#60;Group&#62;_25">
<path id="&#60;Path&#62;_10" d="M124.599 86.4L97.7992 86.6L79.4992 107.8L84.7992 133.9L124.599 86.4Z" fill="#EBEBEB"/>
</g>
</g>
<g id="&#60;Group&#62;_26">
<g id="&#60;Group&#62;_27">
<path id="&#60;Path&#62;_11" d="M96.9992 105.2L98.3992 103.4L115.899 117.2L114.499 119L96.9992 105.2Z" fill="#E0E0E0"/>
</g>
</g>
<g id="&#60;Group&#62;_28">
<g id="&#60;Group&#62;_29">
<path id="&#60;Path&#62;_12" d="M111.199 119.5C110.899 116.8 112.999 114.3 115.699 114C118.499 113.8 120.999 115.8 121.199 118.6C121.499 121.4 119.399 123.8 116.699 124.1C113.899 124.4 111.399 122.3 111.199 119.5Z" fill="#E0E0E0"/>
</g>
</g>
<g id="&#60;Group&#62;_30">
<g id="&#60;Group&#62;_31">
<path id="&#60;Path&#62;_13" d="M97.7992 86.6L94.4992 83.9L93.6992 74.9L57.9992 45.2L50.6992 45.9L48.0992 43.8L28.7992 67.1L31.7992 69.5L32.3992 76.6L68.3992 106L76.6992 105.3L79.4992 107.8L97.7992 86.6Z" fill="#EBEBEB"/>
</g>
</g>
<g id="&#60;Group&#62;_32">
<g id="&#60;Group&#62;_33">
<path id="&#60;Path&#62;_14" d="M127.699 21.5L101.799 0L69.7992 38.6L94.9992 59.5L95.6992 60L127.699 21.5Z" fill="#E0E0E0"/>
</g>
</g>
<g id="&#60;Group&#62;_34">
<g id="&#60;Group&#62;_35">
<path id="&#60;Path&#62;_15" d="M124.299 21.9L102.099 3.39999L73.2992 38.2L95.3992 56.6L124.299 21.9Z" fill="white"/>
</g>
</g>
<g id="&#60;Group&#62;_36">
<g id="&#60;Group&#62;_37">
<path id="&#60;Path&#62;_16" d="M92.6992 12.6L91.3992 14.3L115.699 34.2L116.999 32.5L92.6992 12.6Z" fill="#E0E0E0"/>
</g>
</g>
<g id="&#60;Group&#62;_38">
<g id="&#60;Group&#62;_39">
<path id="&#60;Path&#62;_17" d="M82.9992 47.6L84.6992 49L114.499 12.4L112.899 11L82.9992 47.6Z" fill="#E0E0E0"/>
</g>
</g>
<g id="&#60;Group&#62;_40">
<g id="&#60;Group&#62;_41">
<path id="&#60;Path&#62;_18" d="M82.5992 25L81.1992 26.7L105.599 46.5L106.899 44.9L82.5992 25Z" fill="#E0E0E0"/>
</g>
</g>
<g id="&#60;Group&#62;_42">
<g id="&#60;Group&#62;_43">
<g id="&#60;Group&#62;_44">
<path id="&#60;Path&#62;_19" d="M67.9992 105.6C67.7992 105.5 73.2992 98.3 80.2992 89.7C87.2992 81.1 93.1992 74.3 93.3992 74.5C93.6992 74.7 88.0992 81.8 81.0992 90.4C74.0992 99 68.1992 105.8 67.9992 105.6Z" fill="#E0E0E0"/>
</g>
</g>
</g>
<g id="&#60;Group&#62;_45">
<g id="&#60;Group&#62;_46">
<g id="&#60;Group&#62;_47">
<path id="&#60;Path&#62;_20" d="M93.6992 74.9C93.6992 74.9 92.6992 74.2 90.9992 72.9C89.0992 71.4 86.6992 69.5 83.6992 67.2C77.5992 62.3 69.1992 55.5 59.9992 47.9C59.1992 47.2333 58.4326 46.6 57.6992 46L58.3992 45.9C51.2992 54.6 44.8992 62.4 40.2992 67.9C37.9992 70.6 36.0992 72.8 34.6992 74.4C33.3992 76 32.6992 76.8 32.5992 76.7C32.5992 76.7 33.1992 75.8 34.3992 74.2C35.7992 72.5 37.5992 70.2 39.6992 67.5C44.1992 61.8 50.4992 54 57.5992 45.3L57.9992 44.9L58.3992 45.2C59.1325 45.8 59.8992 46.4333 60.6992 47.1C69.8992 54.7 78.1992 61.6 84.1992 66.6C87.0992 69 89.3992 71.1 91.1992 72.6C92.8992 74 93.7992 74.8 93.6992 74.9Z" fill="#E0E0E0"/>
</g>
</g>
</g>
<g id="&#60;Group&#62;_48">
<g id="&#60;Group&#62;_49">
<g id="&#60;Group&#62;_50">
<path id="&#60;Path&#62;_21" d="M31.4992 69.3C31.2992 69.1 35.3992 63.7 40.6992 57.2C45.9992 50.8 50.3992 45.7 50.5992 45.9C50.8992 46 46.6992 51.4 41.4992 57.9C36.1992 64.4 31.6992 69.5 31.4992 69.3Z" fill="#E0E0E0"/>
</g>
</g>
</g>
<g id="&#60;Group&#62;_51">
<g id="&#60;Group&#62;_52">
<g id="&#60;Group&#62;_53">
<path id="&#60;Path&#62;_22" d="M76.6992 105.3C76.4992 105.1 80.2992 100.1 85.1992 94.1C90.0992 88 94.2992 83.3 94.4992 83.5C94.6992 83.7 90.8992 88.7 85.9992 94.7C81.0992 100.8 76.8992 105.5 76.6992 105.3Z" fill="#E0E0E0"/>
</g>
</g>
</g>
<g id="&#60;Group&#62;_54">
<g id="&#60;Group&#62;_55">
<g id="&#60;Group&#62;_56">
<path id="&#60;Path&#62;_23" d="M79.5992 108.2C79.2992 108 83.0992 102.9 88.0992 96.9C92.9992 90.9 97.0992 86.2 97.3992 86.4C97.5992 86.5 93.7992 91.6 88.8992 97.6C83.8992 103.6 79.7992 108.3 79.5992 108.2Z" fill="#E0E0E0"/>
</g>
</g>
</g>
<g id="&#60;Group&#62;_57">
<g id="&#60;Group&#62;_58">
<g id="&#60;Group&#62;_59">
<path id="&#60;Path&#62;_24" d="M26.2992 108.6C26.5992 108.5 27.2992 114.1 27.9992 121.1C28.5992 128 28.8992 133.7 28.5992 133.7C28.3992 133.7 27.5992 128.1 26.8992 121.2C26.2992 114.2 25.9992 108.6 26.2992 108.6Z" fill="#E0E0E0"/>
</g>
</g>
</g>
<g id="&#60;Group&#62;_60">
<g id="&#60;Group&#62;_61">
<g id="&#60;Group&#62;_62">
<path id="&#60;Path&#62;_25" d="M31.7992 103.2C32.0992 103.2 32.6992 106.3 33.0992 110.2C33.5992 114 33.6992 117.1 33.4992 117.2C33.1992 117.2 32.5992 114.1 32.0992 110.3C31.6992 106.4 31.4992 103.3 31.7992 103.2Z" fill="#E0E0E0"/>
</g>
</g>
</g>
<g id="&#60;Group&#62;_63">
<g id="&#60;Group&#62;_64">
<g id="&#60;Group&#62;_65">
<path id="&#60;Path&#62;_26" d="M96.6992 16.1C96.9992 16.1 96.9992 23.2 96.6992 31.9C96.4992 40.7 95.9992 47.8 95.6992 47.8C95.4992 47.8 95.3992 40.7 95.6992 31.9C95.9992 23.2 96.3992 16.1 96.6992 16.1Z" fill="#E0E0E0"/>
</g>
</g>
</g>
<g id="&#60;Group&#62;_66">
<g id="&#60;Group&#62;_67">
<g id="&#60;Group&#62;_68">
<path id="&#60;Path&#62;_27" d="M100.899 12C101.199 12.1 101.099 15.8 101.099 20.3C101.099 24.9 101.299 28.5 100.999 28.6C100.799 28.6 100.099 24.9 100.099 20.3C99.9992 15.7 100.699 12 100.899 12Z" fill="#E0E0E0"/>
</g>
</g>
</g>
</g>
</svg>
