<svg width="174" height="244" viewBox="0 0 174 244" fill="none" xmlns="http://www.w3.org/2000/svg">
<g id="Layer 1">
<g id="&#60;Group&#62;">
<g id="&#60;Group&#62;_2">
<g id="&#60;Group&#62;_3">
<g id="&#60;Group&#62;_4">
<g id="&#60;Group&#62;_5">
<g id="&#60;Group&#62;_6">
<g id="&#60;Group&#62;_7">
<path id="&#60;Path&#62;" d="M139.212 194.022C138.996 196.055 138.646 198.088 138.176 200.107C137.104 204.747 135.368 209.312 132.94 213.684C118.923 238.903 87.1206 247.989 61.9018 233.972C41.8221 222.815 31.9759 200.382 35.8637 178.969C36.8617 173.488 38.761 168.08 41.6135 162.941C46.0749 154.92 52.3237 148.529 59.6003 144.001C60.7697 143.271 61.9614 142.586 63.1828 141.953C69.7519 138.549 76.9839 136.568 84.3723 136.151C84.4393 136.151 84.5063 136.143 84.5734 136.143C85.0252 136.119 85.477 136.099 85.9289 136.084C86.8326 136.059 87.7363 136.059 88.6399 136.084C94.7696 136.24 100.944 137.477 106.865 139.89C108.824 140.679 110.76 141.603 112.652 142.653C113.054 142.884 113.457 143.107 113.859 143.346C114.097 143.487 114.335 143.636 114.574 143.778C132.263 154.6 141.357 174.448 139.212 194.022Z" fill="#39FFA5"/>
</g>
</g>
</g>
</g>
<g id="&#60;Group&#62;_8">
<g id="&#60;Group&#62;_9">
<g id="&#60;Group&#62;_10">
<g id="&#60;Group&#62;_11">
<path id="&#60;Path&#62;_2" d="M61.9046 233.963C87.1234 247.98 118.926 238.893 132.943 213.674C135.371 209.302 137.107 204.737 138.179 200.097C138.648 198.078 138.991 196.045 139.214 194.012C139.609 190.392 139.624 186.757 139.267 183.175C139.252 183.339 139.234 183.503 139.214 183.667C138.991 185.7 138.648 187.733 138.179 189.752C137.107 194.392 135.371 198.965 132.943 203.329C118.926 228.555 87.1234 237.634 61.9046 223.625C46.3458 214.978 36.9316 199.56 35.2931 183.093C33.2821 203.21 43.1134 223.521 61.9046 233.963Z" fill="#00C86D"/>
</g>
</g>
</g>
</g>
<g id="&#60;Group&#62;_12">
<g id="&#60;Group&#62;_13">
<g id="&#60;Group&#62;_14">
<g id="&#60;Group&#62;_15">
<path id="&#60;Path&#62;_3" d="M100.286 163.185C105.797 163.46 109.692 161.583 108.985 158.991C108.277 156.392 103.235 154.076 97.716 153.8C92.2045 153.525 88.3093 155.402 89.0243 157.993C89.7318 160.585 94.7741 162.909 100.286 163.185Z" fill="#39FFA5"/>
</g>
</g>
</g>
</g>
<g id="&#60;Group&#62;_16">
<g id="&#60;Group&#62;_17">
<g id="&#60;Group&#62;_18">
<g id="&#60;Group&#62;_19">
<path id="&#60;Path&#62;_4" d="M119.048 194.032C117.626 200.4 119.577 205.554 123.413 205.547C127.249 205.532 131.859 200.527 133.289 194.167C134.712 187.799 132.41 182.481 128.574 182.496C124.739 182.503 120.479 187.672 119.048 194.032Z" fill="#00C86D"/>
</g>
</g>
</g>
</g>
<g id="&#60;Group&#62;_20">
<g id="&#60;Group&#62;_21">
<g id="&#60;Group&#62;_22">
<g id="&#60;Group&#62;_23">
<path id="&#60;Path&#62;_5" d="M116.068 189.733C113.655 194.425 113.938 200.391 116.768 204.815C117.729 206.252 119.07 207.444 120.798 207.913C120.917 207.951 120.984 208.077 120.954 208.196C120.924 208.301 120.827 208.368 120.731 208.36C119.762 208.33 118.802 208.003 117.952 207.504C112.359 203.884 111.361 194.388 115.606 189.413C115.822 189.167 116.232 189.435 116.068 189.733Z" fill="#181818"/>
</g>
</g>
</g>
</g>
<g id="&#60;Group&#62;_24">
<g id="&#60;Group&#62;_25">
<g id="&#60;Group&#62;_26">
<g id="&#60;Group&#62;_27">
<path id="&#60;Path&#62;_6" d="M63.4197 152.662C60.5523 152.781 58.2955 154.859 58.3775 157.302C58.4594 159.745 60.8427 161.629 63.7102 161.517C66.5702 161.398 68.827 159.32 68.7525 156.877C68.6705 154.427 66.2872 152.542 63.4197 152.662Z" fill="#00C86D"/>
</g>
</g>
</g>
</g>
<g id="&#60;Group&#62;_28">
<g id="&#60;Group&#62;_29">
<g id="&#60;Group&#62;_30">
<g id="&#60;Group&#62;_31">
<path id="&#60;Path&#62;_7" d="M63.3576 155.728C61.3914 156.592 60.3933 158.566 61.1456 160.137C61.8904 161.709 64.095 162.282 66.0687 161.418C68.0349 160.554 69.033 158.58 68.2807 157.009C67.5359 155.437 65.3313 154.864 63.3576 155.728Z" fill="#39FFA5"/>
</g>
</g>
</g>
</g>
<g id="&#60;Group&#62;_32">
<g id="&#60;Group&#62;_33">
<g id="&#60;Group&#62;_34">
<g id="&#60;Group&#62;_35">
<path id="&#60;Path&#62;_8" d="M63.7259 161.992C61.3947 162.342 58.7135 161.128 57.7825 158.856C56.4493 155.669 59.0486 152.429 62.1917 151.87C63.9792 151.513 65.9231 151.855 67.3978 152.965C69.4385 154.358 70.1089 157.404 68.515 159.348C68.3437 159.564 68.016 159.348 68.1351 159.11C69.1108 157.27 68.4182 155.021 66.6828 153.985C64.2994 152.436 60.5159 153.144 59.2125 155.751C58.3187 157.479 59.1604 159.549 60.8138 160.532C61.648 161.068 62.6534 161.359 63.7036 161.433C64.0388 161.448 64.0537 161.955 63.7259 161.992Z" fill="#181818"/>
</g>
</g>
</g>
</g>
<g id="&#60;Group&#62;_36">
<g id="&#60;Group&#62;_37">
<g id="&#60;Group&#62;_38">
<g id="&#60;Group&#62;_39">
<path id="&#60;Path&#62;_9" d="M70.2901 153.92C71.8393 155.671 72.0776 158.411 70.9753 160.474C68.808 164.742 62.7751 166.001 58.8277 163.521C56.8689 162.359 55.424 160.139 55.5729 157.83C55.5804 157.704 55.6921 157.614 55.8187 157.622C55.923 157.629 56.0124 157.711 56.0273 157.816C56.5859 162.009 61.3898 164.079 65.1734 163.081C69.1952 162.18 72.0031 158.143 69.8358 154.248C69.6719 153.958 70.0816 153.674 70.2901 153.92Z" fill="#181818"/>
</g>
</g>
</g>
</g>
<g id="&#60;Group&#62;_40">
<g id="&#60;Group&#62;_41">
<g id="&#60;Group&#62;_42">
<g id="&#60;Group&#62;_43">
<path id="&#60;Path&#62;_10" d="M49.4933 169.029C54.2674 169.49 57.9914 173.974 58.3936 178.681C59.1012 184.952 55.1686 191.447 49.2177 193.584C47.7654 194.121 46.2013 194.352 44.6745 194.255C44.5478 194.247 44.451 194.143 44.4585 194.016C44.4659 193.905 44.5627 193.815 44.6745 193.808C47.609 193.584 50.3275 192.266 52.4129 190.315C58.9298 184.446 58.8479 172.276 49.389 169.58C49.0539 169.498 49.1507 168.984 49.4933 169.029Z" fill="#181818"/>
</g>
</g>
</g>
</g>
<g id="&#60;Group&#62;_44">
<g id="&#60;Group&#62;_45">
<g id="&#60;Group&#62;_46">
<g id="&#60;Group&#62;_47">
<path id="&#60;Path&#62;_11" d="M38.8344 180.016C37.8512 184.895 40.3314 189.542 44.3682 190.391C48.405 191.248 52.4641 187.978 53.4398 183.107C54.4229 178.229 51.9428 173.581 47.906 172.732C43.8692 171.876 39.8101 175.145 38.8344 180.016Z" fill="#00C86D"/>
</g>
</g>
</g>
</g>
<g id="&#60;Group&#62;_48">
<g id="&#60;Group&#62;_49">
<g id="&#60;Group&#62;_50">
<g id="&#60;Group&#62;_51">
<path id="&#60;Path&#62;_12" d="M45.8613 189.251C48.5128 189.281 51.2164 187.471 52.6017 184.432C54.4488 180.388 53.2646 175.696 49.9651 173.946C49.4959 173.692 49.0118 173.521 48.5202 173.417C46.5688 174.206 44.8186 175.875 43.761 178.198C41.8915 182.302 42.8449 187.024 45.8613 189.251Z" fill="#39FFA5"/>
</g>
</g>
</g>
</g>
<g id="&#60;Group&#62;_52">
<g id="&#60;Group&#62;_53">
<g id="&#60;Group&#62;_54">
<g id="&#60;Group&#62;_55">
<path id="&#60;Path&#62;_13" d="M38.9389 178.289C42.514 170.268 53.7455 171.318 53.8945 180.695C53.8945 186.154 48.4798 191.375 42.9683 189.766C41.2329 189.253 39.7582 188.001 38.9985 186.437C38.8719 186.184 39.2294 185.975 39.3858 186.206C43.8695 192.418 52.4123 187.316 52.39 180.673C52.457 175.384 47.3551 172.539 42.8119 175.183C41.434 175.958 40.2796 177.142 39.438 178.542C39.2667 178.84 38.7974 178.609 38.9389 178.289Z" fill="#181818"/>
</g>
</g>
</g>
</g>
<g id="&#60;Group&#62;_56">
<g id="&#60;Group&#62;_57">
<g id="&#60;Group&#62;_58">
<g id="&#60;Group&#62;_59">
<path id="&#60;Path&#62;_14" d="M107.906 179.141C108.569 183.2 107.422 187.512 104.83 190.722C99.4001 197.53 89.2188 198.185 82.3518 193.188C79.03 190.812 76.5424 187.244 75.6263 183.274C75.5965 183.148 75.6709 183.029 75.7901 182.999C75.9093 182.977 76.021 183.036 76.0582 183.148C76.7137 185.002 77.6447 186.738 78.8289 188.265C86.396 198.044 102.32 197.277 106.58 184.92L106.811 184.235C106.945 183.557 107.161 182.805 107.235 182.113C107.362 181.152 107.399 180.176 107.347 179.2C107.325 178.858 107.846 178.791 107.906 179.141Z" fill="#181818"/>
</g>
</g>
</g>
</g>
<g id="&#60;Group&#62;_60">
<g id="&#60;Group&#62;_61">
<g id="&#60;Group&#62;_62">
<g id="&#60;Group&#62;_63">
<path id="&#60;Path&#62;_15" d="M90.2713 168.81C84.514 169.406 80.3357 174.552 80.9316 180.302C81.5274 186.059 86.6814 190.237 92.4312 189.642C98.181 189.038 102.359 183.892 101.764 178.142C101.168 172.392 96.0211 168.206 90.2713 168.81Z" fill="#00C86D"/>
</g>
</g>
</g>
</g>
<g id="&#60;Group&#62;_64">
<g id="&#60;Group&#62;_65">
<g id="&#60;Group&#62;_66">
<g id="&#60;Group&#62;_67">
<path id="&#60;Path&#62;_16" d="M82.0868 182.8C83.0625 186.382 86.28 189.242 90.4881 189.823C96.0964 190.598 101.34 187.023 102.204 181.846C102.323 181.116 102.353 180.394 102.293 179.686C100.588 177.4 97.8988 175.761 94.6887 175.314C88.991 174.532 83.636 177.817 82.0868 182.8Z" fill="#39FFA5"/>
</g>
</g>
</g>
</g>
<g id="&#60;Group&#62;_68">
<g id="&#60;Group&#62;_69">
<g id="&#60;Group&#62;_70">
<g id="&#60;Group&#62;_71">
<path id="&#60;Path&#62;_17" d="M92.736 168.972C97.4207 169.56 101.525 173.441 102.329 178.133C103.32 182.996 100.311 188.121 95.5736 189.633C88.4087 192.068 80.4394 186.452 80.4915 178.863C80.5064 176.502 81.3629 174.156 82.9345 172.443C83.0164 172.353 83.1579 172.346 83.2473 172.428C83.3366 172.51 83.3441 172.636 83.2771 172.733C81.9588 174.498 81.3182 176.695 81.43 178.848C81.7279 185.491 88.7886 190.377 95.0895 188.202C101.785 185.886 102.969 177.597 98.2102 172.718C96.7355 171.147 94.7767 170.029 92.6317 169.523C92.2965 169.441 92.3859 168.927 92.736 168.972Z" fill="#181818"/>
</g>
</g>
</g>
</g>
<g id="&#60;Group&#62;_72">
<g id="&#60;Group&#62;_73">
<g id="&#60;Group&#62;_74">
<g id="&#60;Group&#62;_75">
<g id="&#60;Group&#62;_76">
<path id="&#60;Path&#62;_18" d="M61.9229 209.251C59.465 210.54 57.5435 212.431 56.471 214.837C54.527 219.209 55.9049 224.035 59.4576 228.281C61.7963 231.074 65.1031 233.502 69.125 235.125C79.284 239.244 90.1208 236.712 93.3383 229.48C94.5375 226.791 94.5151 223.827 93.4873 220.952C91.7519 216.103 85.7712 214.643 79.3883 212.066" fill="#39FFA5"/>
</g>
</g>
</g>
</g>
<g id="&#60;Group&#62;_77">
<g id="&#60;Group&#62;_78">
<g id="&#60;Group&#62;_79">
<g id="&#60;Group&#62;_80">
<path id="&#60;Path&#62;_19" d="M56.7314 214.951C55.0407 219.114 56.6197 223.665 59.301 227.024C64.7156 233.801 74.0256 237.369 82.5907 236.162C86.851 235.529 91.1261 233.377 93.137 229.385C93.2488 229.139 93.6509 229.295 93.5467 229.571C92.7125 231.716 91.1261 233.548 89.212 234.852C79.4775 241.093 64.8497 236.803 58.2582 227.813C55.4951 224.179 53.998 218.98 56.2175 214.72C56.3814 214.407 56.8506 214.615 56.7314 214.951Z" fill="#181818"/>
</g>
</g>
</g>
</g>
<g id="&#60;Group&#62;_81">
<g id="&#60;Group&#62;_82">
<g id="&#60;Group&#62;_83">
<g id="&#60;Group&#62;_84">
<path id="&#60;Path&#62;_20" d="M76.6689 211.226C68.5283 209.52 61.1548 212.998 60.1865 218.979C59.2183 224.967 65.0352 231.201 73.1683 232.899C81.309 234.605 88.6824 231.134 89.6507 225.146C90.6115 219.165 84.802 212.931 76.6689 211.226Z" fill="#00C86D"/>
</g>
</g>
</g>
</g>
<g id="&#60;Group&#62;_85">
<g id="&#60;Group&#62;_86">
<g id="&#60;Group&#62;_87">
<g id="&#60;Group&#62;_88">
<path id="&#60;Path&#62;_21" d="M76.1439 217.045C69.1652 216.121 63.2738 218.981 62.9908 223.443C62.7078 227.897 68.1373 232.261 75.1161 233.185C82.1023 234.116 87.9936 231.248 88.2766 226.794C88.5596 222.34 83.1301 217.976 76.1439 217.045Z" fill="#39FFA5"/>
</g>
</g>
</g>
</g>
<g id="&#60;Group&#62;_89">
<g id="&#60;Group&#62;_90">
<g id="&#60;Group&#62;_91">
<g id="&#60;Group&#62;_92">
<path id="&#60;Path&#62;_22" d="M84.6726 231.704C90.1022 228.598 90.2809 222.551 86.4824 218.007C84.2555 215.237 81.0529 213.345 77.7013 212.235C74.6551 211.289 71.3482 210.991 68.2275 211.721C64.3695 212.57 60.8838 215.549 60.8987 219.713C60.9211 224.189 64.2652 227.965 67.8625 230.296C68.7042 230.833 69.7096 231.354 70.6183 231.786C70.8715 231.905 70.7002 232.3 70.4395 232.203C66.4474 230.721 62.6788 227.95 60.7572 224.025C57.6663 217.791 61.3977 211.796 67.8774 210.291C71.81 209.323 75.9734 209.874 79.7048 211.371C82.3861 212.496 84.8886 214.149 86.8325 216.331C89.2605 219.057 90.9289 222.901 89.8638 226.565C89.5584 227.623 89.0445 228.658 88.3519 229.522C87.4358 230.684 86.2367 231.577 84.9333 232.196C84.613 232.345 84.3747 231.883 84.6726 231.704Z" fill="#181818"/>
</g>
</g>
</g>
</g>
</g>
<g id="&#60;Group&#62;_93">
<g id="&#60;Group&#62;_94">
<g id="&#60;Group&#62;_95">
<g id="&#60;Group&#62;_96">
<g id="&#60;Group&#62;_97">
<path id="&#60;Path&#62;_23" d="M107.178 159.643C109.01 158.437 110.373 156.806 111.036 154.832C112.228 151.249 110.776 147.555 107.655 144.487C105.607 142.476 102.814 140.822 99.5217 139.847C91.2246 137.389 82.8904 140.212 80.9167 146.148C80.1793 148.36 80.4251 150.683 81.4604 152.866C83.1957 156.545 87.2102 159.591 92.4238 161.133" fill="#39FFA5"/>
</g>
</g>
</g>
</g>
<g id="&#60;Group&#62;_98">
<g id="&#60;Group&#62;_99">
<g id="&#60;Group&#62;_100">
<g id="&#60;Group&#62;_101">
<path id="&#60;Path&#62;_24" d="M110.766 154.738C111.72 151.342 110.126 147.953 107.772 145.548C102.991 140.699 95.4982 138.628 88.8918 140.185C85.5998 140.989 82.4344 142.963 81.1236 146.218C81.0789 146.33 80.9449 146.389 80.8331 146.337C80.7289 146.3 80.6693 146.181 80.6991 146.069C81.1683 144.304 82.278 142.71 83.6857 141.526C90.8879 135.761 102.834 138.018 108.733 144.661C111.191 147.328 112.77 151.394 111.295 154.917C111.161 155.237 110.677 155.073 110.766 154.738Z" fill="#181818"/>
</g>
</g>
</g>
</g>
<g id="&#60;Group&#62;_102">
<g id="&#60;Group&#62;_103">
<g id="&#60;Group&#62;_104">
<g id="&#60;Group&#62;_105">
<path id="&#60;Path&#62;_25" d="M95.4332 159.219C101.965 159.934 107.499 156.634 107.804 151.853C108.102 147.071 103.052 142.617 96.5206 141.902C89.9887 141.187 84.4549 144.487 84.157 149.268C83.8591 154.05 88.9088 158.504 95.4332 159.219Z" fill="#00C86D"/>
</g>
</g>
</g>
</g>
<g id="&#60;Group&#62;_106">
<g id="&#60;Group&#62;_107">
<g id="&#60;Group&#62;_108">
<g id="&#60;Group&#62;_109">
<path id="&#60;Path&#62;_26" d="M95.4009 154.59C100.965 154.784 105.374 152.08 105.255 148.557C105.135 145.027 100.533 142.011 94.9689 141.824C89.4053 141.631 84.9887 144.334 85.1078 147.857C85.227 151.388 89.8373 154.404 95.4009 154.59Z" fill="#39FFA5"/>
</g>
</g>
</g>
</g>
<g id="&#60;Group&#62;_110">
<g id="&#60;Group&#62;_111">
<g id="&#60;Group&#62;_112">
<g id="&#60;Group&#62;_113">
<path id="&#60;Path&#62;_27" d="M87.5886 143.775C83.6635 146.598 83.9912 151.342 87.2906 154.53C89.3388 156.593 92.1244 157.874 94.962 158.41C99.8851 159.498 107.422 157.516 107.043 151.342C106.693 147.864 103.818 145.168 100.861 143.604C100.161 143.239 99.334 142.896 98.5892 142.621C98.3285 142.524 98.4626 142.114 98.7307 142.196C99.8181 142.486 100.898 142.837 101.918 143.358C102.931 143.872 103.914 144.482 104.786 145.235C108.763 148.534 109.88 154.113 105.583 157.68C102.328 160.317 97.7699 160.667 93.8299 159.699C91.0146 159.006 88.3184 157.583 86.3298 155.461C84.4083 153.442 83.1123 150.508 83.872 147.707C84.0508 146.992 84.3412 146.285 84.7509 145.674C85.4063 144.684 86.3001 143.887 87.2832 143.306C87.4173 143.224 87.5885 143.268 87.6705 143.403C87.745 143.529 87.7077 143.686 87.5886 143.775Z" fill="#181818"/>
</g>
</g>
</g>
</g>
</g>
<g id="&#60;Group&#62;_114">
<g id="&#60;Group&#62;_115">
<g id="&#60;Group&#62;_116">
<g id="&#60;Group&#62;_117">
<path id="&#60;Path&#62;_28" d="M119.127 193.789C117.883 199.174 119.343 203.471 122.396 203.397C125.45 203.322 128.936 198.898 130.187 193.513C131.431 188.128 129.971 183.824 126.917 183.898C123.864 183.98 120.378 188.404 119.127 193.789Z" fill="#39FFA5"/>
</g>
</g>
</g>
</g>
<g id="&#60;Group&#62;_118">
<g id="&#60;Group&#62;_119">
<g id="&#60;Group&#62;_120">
<g id="&#60;Group&#62;_121">
<path id="&#60;Path&#62;_29" d="M132.772 185.829C130.321 181.747 125.867 183.289 123.261 186.335C120.103 189.977 118.382 195.168 119.291 199.965C120.229 204.367 123.804 205.856 127.536 203.264C129.383 202.013 130.798 200.181 131.893 198.252C132.243 197.604 132.593 196.882 132.883 196.204C132.928 196.085 133.07 196.025 133.189 196.085C133.293 196.129 133.345 196.248 133.308 196.36C132.846 197.85 132.213 199.302 131.371 200.628C126.247 208.754 117.436 207.182 117.533 197.053C117.645 191.191 121.57 183.2 127.938 182.351C129.055 182.261 130.224 182.5 131.17 183.103C132.124 183.706 132.816 184.607 133.263 185.568C133.33 185.71 133.271 185.873 133.129 185.94C133.002 186 132.846 185.955 132.772 185.829Z" fill="#181818"/>
</g>
</g>
</g>
</g>
<g id="&#60;Group&#62;_122" opacity="0.6">
<g id="&#60;Group&#62;_123">
<g id="&#60;Group&#62;_124">
<g id="&#60;Group&#62;_125">
<path id="&#60;Path&#62;_30" d="M115.192 154.308C115.446 160.624 125.768 165.8 129.775 182.208C131.481 189.172 137.156 181.225 131.57 168.169C126.394 156.066 115.006 149.854 115.192 154.308Z" fill="white"/>
</g>
</g>
</g>
</g>
<g id="&#60;Group&#62;_126" opacity="0.6">
<g id="&#60;Group&#62;_127">
<g id="&#60;Group&#62;_128">
<g id="&#60;Group&#62;_129">
<path id="&#60;Path&#62;_31" d="M99.7014 145.786C101.169 147.633 105.742 148.281 109.801 150.985C114.143 153.882 117.241 151.402 110.702 145.257C103.723 138.711 96.9382 142.293 99.7014 145.786Z" fill="white"/>
</g>
</g>
</g>
</g>
<g id="&#60;Group&#62;_130">
<g id="&#60;Group&#62;_131">
<g id="&#60;Group&#62;_132">
<g id="&#60;Group&#62;_133">
<path id="&#60;Compound Path&#62;" fill-rule="evenodd" clip-rule="evenodd" d="M88.7031 133.478C95.302 133.642 101.744 134.99 107.844 137.47C109.915 138.304 111.956 139.288 113.922 140.382C114.332 140.606 114.763 140.852 115.188 141.105C115.441 141.254 115.702 141.41 115.933 141.559C124.937 147.063 132.11 154.988 136.683 164.484C141.152 173.779 142.924 184.087 141.807 194.306C141.576 196.428 141.211 198.581 140.72 200.696C139.565 205.671 137.718 210.468 135.216 214.951C125.548 232.357 107.159 243.172 87.2284 243.172C77.9706 243.172 68.7798 240.781 60.6392 236.253C40.0828 224.835 29.0971 201.627 33.3052 178.501C34.3777 172.61 36.4035 166.949 39.338 161.676C43.8515 153.55 50.3833 146.668 58.2186 141.798C59.4326 141.03 60.7062 140.308 61.9873 139.645C68.8394 136.085 76.5331 133.985 84.2343 133.553C84.2418 133.545 84.2567 133.545 84.2716 133.545H84.3088C84.3535 133.54 84.3982 133.538 84.4429 133.538C84.9493 133.508 85.4185 133.493 85.8654 133.478C86.3421 133.471 86.8411 133.463 87.3252 133.463C87.7795 133.463 88.2413 133.463 88.7031 133.478ZM85.9324 136.085C85.4806 136.1 85.0263 136.12 84.5695 136.145C84.5099 136.145 84.4429 136.152 84.3758 136.152C76.9875 136.569 69.7555 138.55 63.1864 141.954C61.9649 142.587 60.7658 143.272 59.6039 144.002C52.3273 148.53 46.071 154.921 41.6171 162.942C38.7645 168.081 36.8653 173.489 35.8673 178.97C31.972 200.383 41.8256 222.816 61.9053 233.973C69.9417 238.442 78.6409 240.565 87.2284 240.565C105.58 240.565 123.396 230.868 132.944 213.685C135.372 209.313 137.1 204.748 138.18 200.108C138.649 198.089 138.992 196.056 139.215 194.023C141.36 174.449 132.266 154.601 114.577 143.779C114.339 143.637 114.101 143.488 113.862 143.347C113.46 143.108 113.058 142.885 112.648 142.654C110.756 141.604 108.827 140.68 106.869 139.891C100.948 137.478 94.7732 136.241 88.6435 136.085C88.2016 136.075 87.7622 136.07 87.3252 136.07C86.8634 136.07 86.3992 136.075 85.9324 136.085Z" fill="#181818"/>
</g>
</g>
</g>
</g>
</g>
<g id="&#60;Group&#62;_134">
<g id="&#60;Group&#62;_135">
<g id="&#60;Group&#62;_136">
<g id="&#60;Group&#62;_137">
<g id="&#60;Group&#62;_138">
<path id="&#60;Path&#62;_32" d="M136.864 112.656L136.663 112.738L123.815 117.564L94.1422 78.7826L101.18 58.7402C101.18 58.7402 110.535 55.977 115.659 59.3285C120.784 62.6727 125.543 69.4429 125.543 69.4429C125.543 69.4429 129.021 68.2587 131.121 71.9156C131.449 72.4891 131.896 73.2488 132.41 74.1127L132.417 74.1202C135.188 78.7826 139.999 86.6477 139.999 86.6477C139.999 86.6477 142.286 90.7962 138.629 92.9337C138.629 92.9337 144.706 108.746 136.864 112.656Z" fill="#F7F7F7"/>
</g>
</g>
</g>
</g>
<g id="&#60;Group&#62;_139">
<g id="&#60;Group&#62;_140">
<g id="&#60;Group&#62;_141">
<g id="&#60;Group&#62;_142">
<path id="&#60;Path&#62;_33" d="M164.331 126.203C164.435 137.919 153.933 153.076 145.033 150.581C145.033 150.581 138.807 147.959 127.553 136.064C127.553 136.064 120.477 132.266 113.618 129.95C113.503 129.915 113.392 129.878 113.282 129.838C113.193 129.808 113.096 129.778 113.007 129.749L112.91 135.342V135.349L112.88 137.159C112.88 137.159 116.627 146.804 111.286 151.72C109.35 153.5 106.453 153.791 104.174 152.495C102.662 151.646 100.889 150.178 99.2431 147.676C99.2083 147.626 99.1711 147.576 99.1314 147.527C98.9675 147.318 98.7739 147.147 98.5504 147.02C98.111 146.76 97.5896 146.663 97.0683 146.745C92.5548 147.49 89.7395 145.404 91.959 142.224C91.959 142.224 95.0722 135.968 94.5211 128.013C94.5211 128.013 90.5886 129.935 83.8109 127.738C83.8109 127.738 80.7945 127.991 74.6574 129.153C73.4657 129.376 72.1549 129.637 70.7249 129.935L70.2705 138.805C70.2705 138.805 71.9612 140.839 72.7135 143.021C73.5923 145.553 71.2686 148.026 68.6767 147.341L66.1518 146.678C61.3479 155.548 49.5056 154.059 49.9749 146.164C49.9823 146.134 49.9823 146.097 49.9823 146.067C49.9823 146.067 51.2336 142.216 51.7624 138.88V138.872C51.9039 137.971 52.0007 137.107 52.0007 136.37L51.8443 136.452L33.5149 146.678C33.5149 146.678 28.4502 149.97 22.9611 143.386C20.1458 140.004 17.2038 134.999 15.3865 130.277C15.3791 130.277 15.3791 130.27 15.3791 130.27C13.6512 125.801 12.9362 121.586 14.2693 119.225C17.0102 114.376 24.7039 114.927 27.631 118.13C30.558 121.332 31.1986 123.254 31.1986 123.254C31.1986 123.254 41.1714 116.111 51.4198 112.365C51.4198 112.365 47.301 88.1145 54.0116 81.888C60.7222 75.669 98.2004 66.3441 98.2004 66.3441C98.2004 66.3441 108.061 70.1798 113.916 78.9609C115.182 80.8602 116.522 82.9977 117.848 85.1949C122.667 93.1717 127.277 101.841 127.277 101.841L145.763 122.703C145.763 122.703 152.682 114.004 161.411 120.439C163.251 121.794 164.308 123.924 164.331 126.203Z" fill="#F7F7F7"/>
</g>
</g>
</g>
</g>
<g id="&#60;Group&#62;_143">
<g id="&#60;Group&#62;_144">
<g id="&#60;Group&#62;_145">
<g id="&#60;Group&#62;_146">
<path id="&#60;Compound Path&#62;_2" fill-rule="evenodd" clip-rule="evenodd" d="M107.224 154.396C105.995 154.396 104.766 154.083 103.634 153.45C101.623 152.31 99.8356 150.567 98.3237 148.274C98.1003 147.931 97.6832 147.752 97.2512 147.827C94.1231 148.341 91.628 147.648 90.5778 145.987C90.1235 145.265 89.5873 143.76 91.0098 141.667C91.3003 141.049 93.5868 135.955 93.49 129.467C91.7323 129.855 88.4701 130.145 83.7183 128.842C82.832 128.931 78.8547 129.385 71.7866 130.83L71.3919 138.45C71.9356 139.15 73.1273 140.833 73.7603 142.658C74.2966 144.229 73.9465 145.89 72.8144 147.112C71.6898 148.326 69.9991 148.817 68.4053 148.4L66.6848 147.946C63.5119 153.055 58.0377 154.612 54.0828 153.457C50.6195 152.444 48.6309 149.577 48.8991 145.98C48.904 145.895 48.9189 145.811 48.9437 145.726C48.9586 145.674 50.2769 141.585 50.7461 138.323L34.0553 147.633C33.3999 148.013 27.8288 150.925 22.1237 144.08C17.1708 138.137 9.99092 124.559 13.3202 118.675C14.6087 116.396 16.9473 114.951 19.8893 114.624C23.1589 114.251 26.5924 115.361 28.4395 117.379C30.1228 119.219 31.091 120.664 31.6272 121.61C34.3904 119.733 42.0693 114.765 50.2025 111.644C49.5098 107.071 46.8881 86.9992 53.271 81.078C60.1082 74.7398 96.3947 65.6533 97.9364 65.2735C98.1599 65.2213 98.3907 65.2362 98.5993 65.3182C99.0164 65.4746 108.855 69.3773 114.836 78.3447C120.377 86.6566 127.46 99.832 128.19 101.202L145.79 121.066C148.069 118.862 154.466 113.946 162.071 119.554C164.179 121.111 165.407 123.531 165.43 126.19C165.504 134.227 160.633 144.296 154.34 149.115C151.078 151.61 147.756 152.482 144.739 151.633C144.695 151.623 144.65 151.608 144.605 151.588C144.345 151.476 138.088 148.758 126.887 136.945C125.866 136.409 119.967 133.348 114.084 131.27L113.987 136.968C114.538 138.494 117.465 147.521 112.028 152.526C110.687 153.763 108.967 154.396 107.224 154.396ZM97.4374 145.615C98.5323 145.615 99.5601 146.151 100.163 147.067C101.474 149.07 103.008 150.575 104.714 151.536C106.591 152.601 108.989 152.34 110.546 150.91C115.275 146.546 111.894 137.638 111.864 137.548C111.812 137.422 111.782 137.28 111.79 137.139L111.909 129.728C111.916 129.378 112.088 129.05 112.371 128.849C112.654 128.648 113.019 128.589 113.346 128.7C120.407 130.987 127.765 134.927 128.078 135.091C128.183 135.145 128.274 135.215 128.354 135.299C138.699 146.233 144.762 149.242 145.41 149.54C148.322 150.314 151.145 148.795 153.007 147.372C158.809 142.926 163.3 133.631 163.233 126.213C163.218 124.246 162.317 122.466 160.767 121.319C153.014 115.599 146.884 123.062 146.624 123.382C146.423 123.636 146.117 123.785 145.797 123.792C145.469 123.8 145.164 123.665 144.948 123.427L126.462 102.565C126.403 102.496 126.353 102.424 126.313 102.349C126.239 102.208 118.768 88.2057 113.011 79.5661C107.999 72.0511 99.8133 68.2229 98.1152 67.493C94.3093 68.4538 60.853 77.0413 54.7606 82.6868C49.6215 87.461 51.3867 105.589 52.5039 112.173C52.5933 112.695 52.2953 113.209 51.8038 113.387C41.8161 117.044 31.9401 124.068 31.8432 124.142C31.5602 124.343 31.1953 124.395 30.8601 124.291C30.5324 124.179 30.2717 123.926 30.16 123.591C30.16 123.584 29.512 121.803 26.8233 118.862C25.4454 117.357 22.6971 116.515 20.135 116.806C18.8465 116.947 16.493 117.528 15.2268 119.763C12.9403 123.807 18.0347 135.739 23.8069 142.673C28.6183 148.445 32.8785 145.778 32.9232 145.749C32.9431 145.739 32.9629 145.726 32.9828 145.711L51.4686 135.403C51.8112 135.21 52.2208 135.217 52.5634 135.418C52.8986 135.612 53.0997 135.969 53.0997 136.364C53.0997 139.723 51.3792 145.309 51.0813 146.27C50.9472 148.75 52.2953 150.642 54.701 151.35C57.993 152.31 62.6554 150.836 65.1877 146.151C65.4335 145.704 65.9474 145.481 66.439 145.607L68.9639 146.277C69.7831 146.493 70.6248 146.248 71.2057 145.622C71.7792 145.004 71.9579 144.162 71.6824 143.373C71.0046 141.414 69.448 139.522 69.4331 139.507C69.2543 139.291 69.1649 139.023 69.1798 138.748L69.6342 129.87C69.664 129.371 70.0215 128.954 70.5056 128.849C79.2569 127.032 83.547 126.652 83.7257 126.637C83.8523 126.622 83.9864 126.637 84.113 126.674C90.6895 128.522 94.0188 127.032 94.0486 127.017C94.3763 126.861 94.7636 126.876 95.0764 127.062C95.3892 127.248 95.5978 127.568 95.6201 127.926C96.1861 136.096 93.0804 142.442 92.9463 142.71C92.9215 142.755 92.8941 142.799 92.8644 142.844C92.5366 143.313 92.0451 144.192 92.4324 144.81C92.8643 145.503 94.4508 146.061 96.9011 145.659C97.0799 145.63 97.2587 145.615 97.4374 145.615Z" fill="#181818"/>
</g>
</g>
</g>
</g>
<g id="&#60;Group&#62;_147">
<g id="&#60;Group&#62;_148">
<g id="&#60;Group&#62;_149">
<g id="&#60;Group&#62;_150">
<g id="&#60;Group&#62;_151">
<path id="&#60;Path&#62;_34" d="M34.0196 82.7534C40.1717 86.8051 47.3887 89.3374 55.1123 89.8662C56.6838 89.9705 58.2776 90.0003 59.8864 89.9407C60.6684 89.9109 61.4579 89.8587 62.2549 89.7917C64.6457 89.5757 66.9769 89.1735 69.241 88.6C71.1924 88.1085 73.0916 87.4903 74.9313 86.753C77.1433 85.8666 79.2734 84.809 81.2918 83.6025C82.0267 83.1606 82.7491 82.7013 83.4592 82.2246C96.3963 73.4509 104.425 58.2198 103.152 41.6854C101.275 17.3305 79.9289 -0.611586 55.4772 1.60046C50.7627 2.02499 46.279 3.16453 42.123 4.9148C41.6389 5.11589 41.1548 5.33188 40.6707 5.55532C39.3896 6.14619 38.1433 6.79417 36.9318 7.49924C34.1314 9.12289 31.5246 11.0445 29.1636 13.2044C26.7951 15.3568 24.6576 17.7625 22.803 20.3619C22.2122 21.1861 21.6486 22.0302 21.1123 22.8942C20.3154 24.1976 19.5781 25.5307 18.9077 26.9161C15.5711 33.7905 13.9474 41.5885 14.573 49.7068C15.653 63.709 23.1754 75.5959 34.0196 82.7534Z" fill="white"/>
</g>
</g>
</g>
<g id="&#60;Group&#62;_152">
<g id="&#60;Group&#62;_153">
<g id="&#60;Group&#62;_154">
<path id="&#60;Compound Path&#62;_3" fill-rule="evenodd" clip-rule="evenodd" d="M58.1996 90.0959C57.1718 90.0959 56.1365 90.0586 55.1087 89.9916C47.5639 89.4702 40.25 87.005 33.9565 82.8565C22.6058 75.3713 15.5004 63.2907 14.4577 49.713C13.847 41.8554 15.3515 33.9532 18.7999 26.8627C19.4479 25.5146 20.1927 24.1591 21.0119 22.8334C21.5333 21.9768 22.1068 21.1203 22.7026 20.2862C24.5646 17.6794 26.7096 15.2662 29.0781 13.1063C31.4689 10.9241 34.0905 9.0025 36.8686 7.3863C38.0826 6.68619 39.3414 6.03077 40.6224 5.43493C41.1363 5.1966 41.613 4.98805 42.0822 4.79441C46.3201 3.01434 50.8186 1.89715 55.4662 1.47262C67.3755 0.392662 78.9198 4.01237 87.9616 11.6614C96.9364 19.2509 102.373 29.9089 103.275 41.6767C104.511 57.6526 96.9438 73.2262 83.5301 82.3276C82.8225 82.8043 82.0926 83.2735 81.3627 83.713C79.3145 84.9344 77.1621 85.9995 74.9798 86.8709C73.1104 87.6157 71.1963 88.2339 69.2747 88.718C66.9882 89.2989 64.6346 89.7011 62.2662 89.9171C61.3948 89.9916 60.6127 90.0363 59.8903 90.0661C59.3292 90.0859 58.7656 90.0959 58.1996 90.0959ZM59.5774 1.53965C58.2219 1.53965 56.8589 1.60172 55.4885 1.72585C50.8708 2.14293 46.3946 3.25268 42.179 5.03274C41.7098 5.21894 41.2406 5.42748 40.7341 5.66582C39.4531 6.25421 38.2018 6.90218 36.9952 7.60229C34.232 9.21105 31.6253 11.1252 29.2494 13.2925C26.8958 15.4375 24.7657 17.8432 22.9112 20.4277C22.3153 21.2618 21.7493 22.1184 21.2279 22.96C20.4161 24.2783 19.6713 25.6263 19.0233 26.967C15.5973 34.0276 14.1002 41.8852 14.7035 49.6907C15.7388 63.1938 22.8069 75.2074 34.0905 82.6479C40.3468 86.7741 47.6235 89.2245 55.1236 89.7384C56.71 89.8501 58.3113 89.8724 59.8828 89.8128C60.6053 89.7905 61.3724 89.7384 62.2438 89.6639C64.5974 89.4553 66.9435 89.0532 69.2151 88.4722C71.1218 87.9955 73.0285 87.3774 74.883 86.6326C77.0578 85.7686 79.1954 84.711 81.2287 83.497C81.9586 83.0575 82.681 82.5958 83.3886 82.1191C96.7279 73.0698 104.25 57.5855 103.029 41.6916C102.128 29.9983 96.7204 19.3999 87.7978 11.8551C79.8433 5.12956 69.9525 1.53965 59.5774 1.53965Z" fill="#181818"/>
</g>
</g>
</g>
</g>
<g id="&#60;Group&#62;_155" opacity="0.2">
<g id="&#60;Group&#62;_156">
<g id="&#60;Group&#62;_157">
<g id="&#60;Group&#62;_158">
<path id="&#60;Path&#62;_35" d="M103.154 41.6793C104.427 58.2138 96.3984 73.4449 83.4538 82.2186C82.7488 82.6952 82.0288 83.1545 81.2939 83.5964C79.2755 84.803 77.1454 85.8606 74.9334 86.7469C73.0937 87.4768 71.1945 88.1024 69.2431 88.594C66.979 89.1675 64.6477 89.5697 62.2495 89.7857C61.46 89.8527 60.6705 89.9048 59.8885 89.9346C58.2797 89.9942 56.6859 89.9644 55.1144 89.8602C47.3908 89.3313 40.1738 86.8065 34.0217 82.7474C30.6404 80.5204 27.5793 77.8243 24.9427 74.7557C30.9011 78.4946 37.8128 80.8183 45.1788 81.3248C46.7528 81.434 48.3442 81.4589 49.9529 81.3993C50.735 81.3695 51.5244 81.3173 52.3214 81.2503C54.7122 81.0343 57.0434 80.6321 59.3076 80.0586C61.2589 79.5671 63.1582 78.9414 64.9978 78.2115C67.2098 77.3252 69.34 76.2676 71.3584 75.0611C72.0932 74.6192 72.8132 74.1599 73.5183 73.6832C86.4628 64.9095 94.4917 49.6784 93.2181 33.144C92.4733 23.4989 88.6749 14.8592 82.8431 8.08159C94.1566 15.1646 102.044 27.3048 103.154 41.6793Z" fill="#181818"/>
</g>
</g>
</g>
</g>
<g id="&#60;Group&#62;_159">
<g id="&#60;Group&#62;_160">
<g id="&#60;Group&#62;_161">
<g id="&#60;Group&#62;_162">
<path id="&#60;Compound Path&#62;_4" fill-rule="evenodd" clip-rule="evenodd" d="M58.1989 90.9397C57.1488 90.9397 56.0986 90.9025 55.0484 90.828C47.3621 90.3067 39.9067 87.7892 33.494 83.5588C21.9199 75.9321 14.6805 63.6206 13.6154 49.7749C12.9973 41.7758 14.5315 33.7245 18.0395 26.4926C18.7024 25.1221 19.4621 23.7443 20.2963 22.3887C20.8325 21.5248 21.4135 20.6534 22.0242 19.7968C23.916 17.1454 26.0982 14.6875 28.5114 12.4904C30.9468 10.2635 33.6132 8.30465 36.4509 6.65865C37.6798 5.94364 38.9683 5.28077 40.2717 4.67749C40.793 4.43171 41.2772 4.21572 41.7613 4.02207C46.0662 2.20477 50.6616 1.06523 55.391 0.633249C67.5238 -0.4616 79.2841 3.22514 88.5047 11.0231C97.6507 18.7616 103.192 29.6207 104.116 41.6119C105.367 57.8931 97.6656 73.7573 83.9986 83.0226C83.2762 83.5141 82.5388 83.9908 81.794 84.4377C79.7012 85.6815 77.5189 86.7614 75.292 87.6552C73.3853 88.4149 71.4339 89.0479 69.4826 89.5395C67.1514 90.1279 64.7531 90.5375 62.34 90.7535C61.4462 90.828 60.6567 90.8801 59.9194 90.9099C59.3484 90.9298 58.7749 90.9397 58.1989 90.9397ZM59.5768 2.38352C58.2461 2.38352 56.9079 2.4431 55.5623 2.56227C51.034 2.97191 46.6397 4.06676 42.4986 5.80958C42.0443 5.99578 41.5825 6.19687 41.0835 6.42776C39.8323 7.0087 38.5959 7.64922 37.4191 8.33444C34.7081 9.90596 32.146 11.7903 29.8147 13.913C27.5059 16.0207 25.413 18.3817 23.5957 20.9215C23.0073 21.7408 22.4562 22.5749 21.9423 23.4017C21.1453 24.6976 20.4154 26.0233 19.7824 27.3342C16.4159 34.2608 14.9561 41.9694 15.5445 49.6334C16.5574 62.8684 23.4914 74.651 34.5591 81.9426C40.6888 85.9943 47.8239 88.4 55.1825 88.899C56.7391 89.0107 58.3106 89.0331 59.8524 88.9735C60.5599 88.9511 61.3196 88.899 62.1687 88.832C64.4775 88.6234 66.779 88.2287 69.0059 87.6626C70.8753 87.1934 72.7522 86.5827 74.5695 85.8528C76.7071 85.0037 78.8 83.9684 80.796 82.7768C81.511 82.3448 82.226 81.8905 82.9187 81.4212C96.0047 72.5507 103.386 57.3494 102.187 41.7609C101.308 30.291 96.0047 19.9011 87.2534 12.4978C79.4554 5.9064 69.7507 2.38352 59.5768 2.38352Z" fill="#181818"/>
</g>
</g>
</g>
</g>
<g id="&#60;Group&#62;_163">
<g id="&#60;Group&#62;_164">
<g id="&#60;Group&#62;_165">
<g id="&#60;Group&#62;_166">
<path id="&#60;Compound Path&#62;_5" fill-rule="evenodd" clip-rule="evenodd" d="M58.1977 91.2196C57.1401 91.2196 56.0825 91.1823 55.0249 91.1079C47.2865 90.5791 39.7864 88.0468 33.3365 83.794C21.6953 76.1151 14.4037 63.7217 13.3312 49.794C12.7131 41.7428 14.2548 33.6469 17.7926 26.3702C18.4554 24.9923 19.2151 23.5996 20.0567 22.2366C20.593 21.3652 21.1739 20.4938 21.7921 19.6298C23.6988 16.9634 25.8959 14.4907 28.324 12.2787C30.7669 10.0443 33.4556 8.07058 36.3082 6.41714C37.5445 5.69469 38.8405 5.02437 40.1513 4.42108C40.6801 4.1753 41.1717 3.95931 41.6484 3.75822C45.9831 1.93347 50.6008 0.78648 55.3601 0.354498C67.5747 -0.7478 79.4095 2.96128 88.6822 10.804C97.8879 18.5871 103.466 29.5207 104.397 41.5864C105.656 57.9645 97.9028 73.9329 84.1613 83.2577C83.4314 83.7493 82.6866 84.2185 81.9344 84.6728C79.834 85.9241 77.6369 87.0189 75.3951 87.9127C73.4809 88.6724 71.5147 89.3129 69.5484 89.8045C67.2098 90.4003 64.7892 90.81 62.3686 91.0334C61.4674 91.1079 60.6705 91.16 59.9331 91.1823C59.3571 91.2072 58.7787 91.2196 58.1977 91.2196ZM59.5756 2.65592C58.2548 2.65592 56.9266 2.71799 55.591 2.84212C51.0849 3.25176 46.7204 4.33171 42.6092 6.05963C42.1548 6.25328 41.7005 6.44693 41.2015 6.67782C39.9577 7.25876 38.7288 7.89183 37.5594 8.5696C34.8633 10.1411 32.3235 12.0031 30.0072 14.1183C27.7058 16.2112 25.6278 18.5573 23.818 21.0822C23.237 21.894 22.6859 22.7282 22.1794 23.5474C21.3899 24.8359 20.6675 26.1468 20.0344 27.4576C16.6903 34.3395 15.2379 41.996 15.8189 49.6078C16.8318 62.7609 23.7137 74.4617 34.7069 81.7085C40.8068 85.7304 47.8898 88.1138 55.1962 88.6202C56.7454 88.7245 58.3095 88.7469 59.8363 88.6873C60.5438 88.6649 61.2961 88.6202 62.1452 88.5458C64.4317 88.3372 66.7182 87.9499 68.9377 87.3839C70.7997 86.9221 72.6542 86.3188 74.4641 85.5964C76.5867 84.7473 78.6647 83.7195 80.6533 82.5353C81.3609 82.1033 82.0684 81.6564 82.7611 81.1872C95.7652 72.3688 103.101 57.2643 101.91 41.78C101.031 30.3847 95.7652 20.0618 87.0735 12.7107C79.3276 6.15646 69.6825 2.65592 59.5756 2.65592Z" fill="#181818"/>
</g>
</g>
</g>
</g>
<g id="&#60;Group&#62;_167">
<g id="&#60;Group&#62;_168">
<g id="&#60;Group&#62;_169">
<g id="&#60;Group&#62;_170">
<path id="&#60;Path&#62;_36" d="M44.2028 87.6975C75.6779 91.347 101.083 63.2309 88.25 34.8095C79.5136 15.4672 53.6468 9.33005 35.4366 19.1539C22.1718 26.2965 12.2809 39.0102 17.4944 62.3967C17.4944 62.3967 21.4046 72.377 27.2885 77.2703C33.1724 82.1636 39.7341 85.9248 39.7341 85.9248L44.2028 87.6975Z" fill="#181818"/>
</g>
</g>
</g>
</g>
<g id="&#60;Group&#62;_171">
<g id="&#60;Group&#62;_172">
<g id="&#60;Group&#62;_173">
<g id="&#60;Group&#62;_174">
<path id="&#60;Path&#62;_37" d="M88.237 34.8094C101.07 63.2308 75.6649 91.3468 44.1898 87.7048L43.2811 87.3398C71.0397 78.2831 88.4232 49.7425 75.9851 20.7551C81.2136 24.129 85.5334 28.8361 88.237 34.8094Z" fill="#2B292D"/>
</g>
</g>
</g>
</g>
<g id="&#60;Group&#62;_175">
<g id="&#60;Group&#62;_176">
<g id="&#60;Group&#62;_177">
<g id="&#60;Group&#62;_178">
<path id="&#60;Compound Path&#62;_6" fill-rule="evenodd" clip-rule="evenodd" d="M58.1977 91.2204C57.1401 91.2204 56.0825 91.1832 55.0249 91.1087C47.2865 90.5799 39.7864 88.0476 33.3365 83.7948C21.6953 76.1159 14.4037 63.7225 13.3312 49.7948C12.7131 41.7436 14.2548 33.6477 17.7926 26.371L17.8447 26.2519L17.9266 26.155C21.5314 21.4777 26.4545 17.4335 32.5544 14.1489C43.5253 8.23525 57.3933 7.17764 69.6527 11.3187C80.6906 15.0576 89.211 22.513 93.6426 32.3294C98.4688 43.0098 98.8859 54.1445 94.8417 64.5269C90.5517 75.5573 81.3981 84.7481 69.7346 89.7457L69.5484 89.8053C67.2098 90.4011 64.7892 90.8108 62.3686 91.0342C61.4674 91.1087 60.6705 91.1608 59.9331 91.1832C59.3571 91.208 58.7787 91.2204 58.1977 91.2204ZM19.9748 27.5776C16.6754 34.4223 15.2379 42.0415 15.8189 49.6087C16.8318 62.7617 23.7137 74.4625 34.7069 81.7094C40.8068 85.7312 47.8898 88.1146 55.1962 88.621C56.7454 88.7253 58.3095 88.7477 59.8363 88.6881C60.5438 88.6657 61.2961 88.621 62.1452 88.5466C64.4019 88.3455 66.6586 87.9582 68.8409 87.4145C79.8564 82.6701 88.4811 74.0082 92.5179 63.6257C96.3089 53.8763 95.9142 43.412 91.3709 33.3572C87.2299 24.1813 79.2308 17.1951 68.8558 13.6872C57.2369 9.75463 44.1136 10.7527 33.7386 16.3461C27.9888 19.4444 23.3636 23.2205 19.9748 27.5776Z" fill="#181818"/>
</g>
</g>
</g>
</g>
<g id="&#60;Group&#62;_179">
<g id="&#60;Group&#62;_180">
<g id="&#60;Group&#62;_181">
<g id="&#60;Group&#62;_182">
<path id="&#60;Compound Path&#62;_7" fill-rule="evenodd" clip-rule="evenodd" d="M49.6718 88.5773C47.8396 88.5773 45.985 88.473 44.1305 88.257L44.056 88.2496L39.4532 86.41C39.3861 86.3727 32.7723 82.5743 26.9257 77.7033C21.0046 72.7728 17.1316 63.0159 16.9678 62.6063L16.938 62.5244C12.4469 42.3553 18.584 27.6009 35.1631 18.6633C44.7933 13.4721 56.9708 12.5411 67.7331 16.1832C77.408 19.4528 84.8708 25.9847 88.7512 34.5796C94.3818 47.0475 93.071 60.4166 85.1538 71.2534C77.1473 82.2168 63.8974 88.5773 49.6718 88.5773ZM44.3316 87.1547C60.1734 88.9646 75.464 82.6264 84.2526 70.5979C91.924 60.0889 93.1976 47.1294 87.7308 35.0339C83.9845 26.7295 76.7525 20.4136 67.3755 17.2408C56.9037 13.6955 45.0615 14.5967 35.6919 19.6465C19.6192 28.3084 13.6683 42.6383 18.0179 62.2339C18.2935 62.9191 22.1218 72.2514 27.6407 76.8393C33.1969 81.472 39.4532 85.1215 39.9745 85.4194L44.3316 87.1547Z" fill="#181818"/>
</g>
</g>
</g>
</g>
<g id="&#60;Group&#62;_183">
<g id="&#60;Group&#62;_184">
<g id="&#60;Group&#62;_185">
<g id="&#60;Group&#62;_186">
<path id="&#60;Path&#62;_38" d="M104.802 23.7741C109.315 31.1922 108.667 40.1298 103.349 43.742C98.0315 47.3469 90.0622 44.256 85.5487 36.8378C85.5189 36.7857 85.4891 36.741 85.4668 36.6888C81.0427 29.3005 81.7205 20.4448 87.0011 16.8698C91.1123 14.0768 96.8026 15.2908 101.256 19.4021C102.567 20.6161 103.774 22.0834 104.802 23.7741Z" fill="white"/>
</g>
</g>
</g>
</g>
<g id="&#60;Group&#62;_187" opacity="0.2">
<g id="&#60;Group&#62;_188">
<g id="&#60;Group&#62;_189">
<g id="&#60;Group&#62;_190">
<path id="&#60;Path&#62;_39" d="M104.805 23.7822C109.319 31.2004 108.671 40.1379 103.353 43.7502C98.035 47.355 90.0657 44.2641 85.5523 36.8459C85.5225 36.7938 85.4927 36.7491 85.4703 36.697C86.5205 37.0619 87.8835 37.196 88.9634 36.1086C90.8478 34.2019 91.8234 26.7986 91.8234 26.7986C91.8234 26.7986 95.8975 23.5662 101.26 19.4103C102.571 20.6243 103.777 22.0915 104.805 23.7822Z" fill="#181818"/>
</g>
</g>
</g>
</g>
<g id="&#60;Group&#62;_191">
<g id="&#60;Group&#62;_192">
<g id="&#60;Group&#62;_193">
<g id="&#60;Group&#62;_194">
<path id="&#60;Compound Path&#62;_8" fill-rule="evenodd" clip-rule="evenodd" d="M98.3431 46.4975C97.509 46.4975 96.645 46.4007 95.7662 46.2071C91.3942 45.2612 87.2829 42.0809 84.4825 37.4781C79.6339 29.5162 80.4532 19.8041 86.2998 15.8343C88.6682 14.2255 91.5283 13.7265 94.5819 14.3894C98.9613 15.3427 103.073 18.523 105.866 23.1184C110.714 31.0877 109.902 40.7999 104.048 44.7696C102.365 45.9166 100.429 46.4975 98.3431 46.4975ZM92.0198 16.6014C90.4334 16.6014 88.9662 17.0409 87.7 17.8974C82.9333 21.1298 82.4492 29.3374 86.6126 36.1821C89.0183 40.1444 92.638 42.9747 96.295 43.7716C98.6634 44.2855 100.861 43.9205 102.648 42.7065C107.415 39.4741 107.906 31.2665 103.735 24.4143C101.33 20.4595 97.7101 17.6218 94.0531 16.8323C93.3605 16.6834 92.6827 16.6014 92.0198 16.6014Z" fill="#181818"/>
</g>
</g>
</g>
</g>
<g id="&#60;Group&#62;_195">
<g id="&#60;Group&#62;_196">
<g id="&#60;Group&#62;_197">
<g id="&#60;Group&#62;_198">
<path id="&#60;Path&#62;_40" d="M106.151 24.1809C109.808 30.2435 109.54 37.3935 105.541 40.1493C101.548 42.905 95.3443 40.2238 91.6873 34.1611C88.0304 28.091 88.306 20.941 92.2981 18.1853C96.2976 15.4295 102.494 18.1108 106.151 24.1809Z" fill="white"/>
</g>
</g>
</g>
</g>
<g id="&#60;Group&#62;_199" opacity="0.2">
<g id="&#60;Group&#62;_200">
<g id="&#60;Group&#62;_201">
<g id="&#60;Group&#62;_202">
<path id="&#60;Path&#62;_41" d="M105.545 40.149C109.544 37.3933 109.812 30.2433 106.155 24.1806C105.761 23.5178 105.329 22.8996 104.882 22.3261C106.312 27.1673 105.418 31.9116 102.312 34.0492C98.7967 36.4698 93.6129 34.7642 89.9188 30.2805C90.3433 31.5839 90.9317 32.8947 91.6914 34.1609C95.3483 40.2235 101.552 42.9048 105.545 40.149Z" fill="#181818"/>
</g>
</g>
</g>
</g>
<g id="&#60;Group&#62;_203">
<g id="&#60;Group&#62;_204">
<g id="&#60;Group&#62;_205">
<g id="&#60;Group&#62;_206">
<path id="&#60;Compound Path&#62;_9" fill-rule="evenodd" clip-rule="evenodd" d="M101.976 42.4805C101.351 42.4805 100.703 42.4134 100.047 42.2719C96.5096 41.5048 92.9867 38.7192 90.6257 34.8016C86.5741 28.0836 86.9986 20.3302 91.594 17.1574C93.3517 15.9508 95.5042 15.571 97.8056 16.07C101.343 16.8297 104.866 19.6227 107.227 23.5329C111.279 30.2584 110.854 38.0042 106.252 41.1771C105 42.041 103.548 42.4805 101.976 42.4805ZM95.8914 18.3491C94.8189 18.3491 93.8433 18.6395 93.0091 19.213C89.6128 21.5591 89.5011 28.1059 92.7633 33.5131C94.7742 36.8498 97.6939 39.2108 100.569 39.829C102.185 40.179 103.66 39.9333 104.836 39.1214C108.233 36.7828 108.352 30.2286 105.09 24.8214C103.079 21.4847 100.159 19.1237 97.2768 18.5055C96.8001 18.4012 96.3383 18.3491 95.8914 18.3491Z" fill="#181818"/>
</g>
</g>
</g>
</g>
<g id="&#60;Group&#62;_207" opacity="0.5">
<g id="&#60;Group&#62;_208">
<g id="&#60;Group&#62;_209">
<g id="&#60;Group&#62;_210">
<path id="&#60;Path&#62;_42" d="M49.0729 21.4839C49.0729 21.4839 32.0097 29.6543 27.742 44.6098C27.737 44.6247 27.7321 44.6396 27.7271 44.6545C26.8333 47.805 27.1759 53.3611 27.9952 56.5116C29.0752 60.6676 30.4382 63.3712 31.7266 65.695C35.6517 72.778 38.832 75.3475 38.832 75.3475C32.68 73.8877 28.0325 70.9234 24.7032 65.0619C24.3755 64.4809 24.0602 63.8727 23.7573 63.2371C23.6878 63.0882 23.6208 62.9392 23.5562 62.7902C23.5562 62.7902 23.5562 62.7878 23.5562 62.7828C23.0349 61.4496 22.4092 59.6696 21.8804 57.6065C20.2791 51.3725 19.4673 42.5244 24.5468 35.3669C34.0355 21.9754 49.2517 20.4188 49.0729 21.4839Z" fill="white"/>
</g>
</g>
</g>
</g>
<g id="&#60;Group&#62;_211" opacity="0.5">
<g id="&#60;Group&#62;_212">
<g id="&#60;Group&#62;_213">
<g id="&#60;Group&#62;_214">
<path id="&#60;Path&#62;_43" d="M67.2346 39.8259C69.8786 42.537 73.9378 42.887 76.3062 40.5931C78.6747 38.2991 78.4587 34.24 75.8221 31.5215C73.1781 28.8104 69.1189 28.4678 66.7505 30.7543C64.3746 33.0483 64.598 37.1074 67.2346 39.8259Z" fill="white"/>
</g>
</g>
</g>
</g>
<g id="&#60;Group&#62;_215" opacity="0.5">
<g id="&#60;Group&#62;_216">
<g id="&#60;Group&#62;_217">
<g id="&#60;Group&#62;_218">
<path id="&#60;Path&#62;_44" d="M78.5909 46.4579C79.7751 47.4857 81.4583 47.4857 82.3595 46.4579C83.2533 45.4375 83.0224 43.7766 81.8382 42.7488C80.6614 41.7284 78.9707 41.7284 78.077 42.7488C77.1832 43.7766 77.4141 45.4375 78.5909 46.4579Z" fill="white"/>
</g>
</g>
</g>
</g>
</g>
<g id="&#60;Group&#62;_219">
<g id="&#60;Group&#62;_220">
<g id="&#60;Group&#62;_221">
<g id="&#60;Group&#62;_222">
<path id="&#60;Path&#62;_45" d="M136.863 113.759C136.461 113.759 136.074 113.535 135.88 113.148C135.612 112.604 135.828 111.949 136.372 111.673C143.239 108.255 137.66 93.4779 137.601 93.3289C137.407 92.8224 137.608 92.2564 138.07 91.9883C140.654 90.4763 139.269 87.6089 139.046 87.1992C138.673 86.5885 132.208 76.0124 130.168 72.4672C128.589 69.7114 126.161 70.4041 125.885 70.486C125.431 70.635 124.917 70.4711 124.641 70.0764C124.596 70.0094 119.941 63.4403 115.056 60.2451C110.423 57.2138 101.582 59.7759 101.493 59.7982C100.912 59.9695 100.301 59.6344 100.13 59.0534C99.9512 58.4725 100.286 57.8617 100.867 57.6904C101.269 57.5713 110.773 54.823 116.262 58.4054C120.649 61.2803 124.693 66.4492 126.004 68.2144C127.695 67.9686 130.369 68.4006 132.074 71.3723C134.145 74.9771 140.87 85.9629 140.937 86.0746C140.947 86.0895 140.955 86.1044 140.96 86.1193C141.853 87.7429 142.673 91.1764 139.947 93.3587C141.131 96.8071 144.989 109.834 137.355 113.639C137.198 113.721 137.027 113.759 136.863 113.759Z" fill="#181818"/>
</g>
</g>
</g>
</g>
<g id="&#60;Group&#62;_223">
<g id="&#60;Group&#62;_224">
<g id="&#60;Group&#62;_225">
<g id="&#60;Group&#62;_226">
<path id="&#60;Path&#62;_46" d="M113.798 79.8776C113.575 79.8776 113.344 79.8106 113.15 79.6617C112.659 79.3041 112.554 78.6189 112.919 78.1274C118.051 71.1784 124.866 68.527 125.149 68.4227C125.722 68.2067 126.355 68.4897 126.571 69.0558C126.787 69.6218 126.497 70.2549 125.931 70.4709C125.871 70.5007 119.421 73.0255 114.684 79.4308C114.468 79.7287 114.133 79.8776 113.798 79.8776Z" fill="#181818"/>
</g>
</g>
</g>
</g>
<g id="&#60;Group&#62;_227">
<g id="&#60;Group&#62;_228">
<g id="&#60;Group&#62;_229">
<g id="&#60;Group&#62;_230">
<path id="&#60;Path&#62;_47" d="M127.425 99.5246C126.085 99.5246 124.878 99.1001 123.984 98.0425C123.597 97.5807 123.656 96.8881 124.118 96.5008C124.58 96.106 125.273 96.1656 125.667 96.6274C127.716 99.0554 134.814 94.609 137.934 92.0767C138.403 91.6968 139.096 91.7713 139.476 92.2405C139.856 92.7098 139.789 93.4024 139.32 93.7823C138.426 94.5122 132.088 99.5246 127.425 99.5246Z" fill="#181818"/>
</g>
</g>
</g>
</g>
<g id="&#60;Group&#62;_231">
<g id="&#60;Group&#62;_232">
<g id="&#60;Group&#62;_233">
<g id="&#60;Group&#62;_234">
<path id="&#60;Path&#62;_48" d="M130.255 71.0849C127.789 72.5671 125.339 74.1833 123.187 76.0825C122.643 76.5368 122.054 77.021 122.315 77.8179C122.337 77.87 122.449 78.1828 122.472 78.2424C123.76 81.661 125.183 85.0499 127.037 88.2003C127.134 88.3567 126.903 88.528 126.784 88.3791C125.503 86.8671 124.401 85.2063 123.388 83.5007C122.434 81.9068 121.585 80.231 120.788 78.5552C120.714 78.4137 120.654 78.2573 120.61 78.1084C119.813 75.5388 122.658 74.1163 124.326 72.7905C125.957 71.6212 127.603 70.5338 129.324 69.506C129.763 69.2527 130.322 69.3942 130.582 69.8262C130.843 70.2657 130.694 70.8317 130.255 71.0849Z" fill="#181818"/>
</g>
</g>
</g>
</g>
<g id="&#60;Group&#62;_235">
<g id="&#60;Group&#62;_236">
<g id="&#60;Group&#62;_237">
<g id="&#60;Group&#62;_238">
<path id="&#60;Path&#62;_49" d="M146.621 123.39C145.303 124.56 144.022 125.811 142.949 127.219C142.837 127.382 142.562 127.241 142.629 127.055C143.195 125.282 144.022 123.621 144.915 121.99C145.861 120.545 147.857 122.176 146.621 123.39Z" fill="#181818"/>
</g>
</g>
</g>
</g>
<g id="&#60;Group&#62;_239">
<g id="&#60;Group&#62;_240">
<g id="&#60;Group&#62;_241">
<g id="&#60;Group&#62;_242">
<path id="&#60;Path&#62;_50" d="M127.555 137.159C127.495 137.159 127.435 137.154 127.376 137.144C126.773 137.047 126.37 136.481 126.475 135.878C128.836 121.786 140.298 116.759 140.782 116.55C141.341 116.319 141.989 116.572 142.227 117.131C142.458 117.69 142.205 118.338 141.646 118.576C141.497 118.636 130.787 123.387 128.635 136.243C128.545 136.779 128.083 137.159 127.555 137.159Z" fill="#181818"/>
</g>
</g>
</g>
</g>
<g id="&#60;Group&#62;_243">
<g id="&#60;Group&#62;_244">
<g id="&#60;Group&#62;_245">
<g id="&#60;Group&#62;_246">
<path id="&#60;Path&#62;_51" d="M148.43 151.63C146.412 151.63 144.676 150.826 143.537 149.358C142.092 147.511 141.719 144.815 142.501 141.955C143.686 137.635 148.542 127.096 154.396 122.307C156.355 120.706 158.313 120.021 160.22 120.274C162.879 120.624 164.391 122.687 164.45 122.777C164.748 123.186 164.652 123.76 164.242 124.058C163.832 124.348 163.259 124.259 162.968 123.849C162.953 123.834 161.821 122.322 159.959 122.084C158.581 121.905 157.099 122.456 155.558 123.722C150.277 128.042 145.473 138.052 144.266 142.439C143.641 144.733 143.894 146.848 144.982 148.234C145.801 149.291 147.022 149.828 148.557 149.798C149.078 149.79 149.48 150.185 149.495 150.692C149.502 151.198 149.1 151.615 148.594 151.623C148.539 151.627 148.485 151.63 148.43 151.63Z" fill="#181818"/>
</g>
</g>
</g>
</g>
<g id="&#60;Group&#62;_247">
<g id="&#60;Group&#62;_248">
<g id="&#60;Group&#62;_249">
<g id="&#60;Group&#62;_250">
<path id="&#60;Path&#62;_52" d="M163.707 131.364C163.573 131.364 163.439 131.334 163.312 131.275L152.311 126.039C151.857 125.823 151.664 125.272 151.88 124.817C152.095 124.363 152.647 124.17 153.101 124.386L164.102 129.621C164.556 129.837 164.75 130.389 164.534 130.843C164.377 131.171 164.049 131.364 163.707 131.364Z" fill="#181818"/>
</g>
</g>
</g>
</g>
<g id="&#60;Group&#62;_251">
<g id="&#60;Group&#62;_252">
<g id="&#60;Group&#62;_253">
<g id="&#60;Group&#62;_254">
<path id="&#60;Path&#62;_53" d="M161.189 137.709C161.047 137.709 160.906 137.679 160.772 137.605L148.9 131.505C148.453 131.274 148.274 130.723 148.505 130.276C148.736 129.821 149.287 129.65 149.741 129.881L161.606 135.981C162.06 136.212 162.239 136.763 162.008 137.21C161.844 137.53 161.524 137.709 161.189 137.709Z" fill="#181818"/>
</g>
</g>
</g>
</g>
<g id="&#60;Group&#62;_255">
<g id="&#60;Group&#62;_256">
<g id="&#60;Group&#62;_257">
<g id="&#60;Group&#62;_258">
<path id="&#60;Path&#62;_54" d="M158.202 143.626C158.061 143.626 157.926 143.596 157.792 143.536L145.838 137.615C145.384 137.392 145.198 136.841 145.421 136.394C145.652 135.939 146.196 135.753 146.65 135.977L158.604 141.89C159.059 142.121 159.245 142.665 159.021 143.119C158.857 143.44 158.537 143.626 158.202 143.626Z" fill="#181818"/>
</g>
</g>
</g>
</g>
<g id="&#60;Group&#62;_259">
<g id="&#60;Group&#62;_260">
<g id="&#60;Group&#62;_261">
<g id="&#60;Group&#62;_262">
<path id="&#60;Path&#62;_55" d="M153.632 148.45C153.506 148.45 153.387 148.428 153.267 148.375L143.444 144.108C142.982 143.907 142.766 143.363 142.967 142.901C143.168 142.439 143.712 142.231 144.173 142.432L153.997 146.7C154.459 146.901 154.668 147.437 154.466 147.906C154.318 148.249 153.982 148.45 153.632 148.45Z" fill="#181818"/>
</g>
</g>
</g>
</g>
<g id="&#60;Group&#62;_263">
<g id="&#60;Group&#62;_264">
<g id="&#60;Group&#62;_265">
<g id="&#60;Group&#62;_266">
<path id="&#60;Path&#62;_56" d="M32.2319 122.884L33.3789 128.775C33.4236 128.976 33.1257 129.081 33.0363 128.894L30.1614 123.629C29.4315 122.094 31.8148 121.238 32.2319 122.884Z" fill="#181818"/>
</g>
</g>
</g>
</g>
<g id="&#60;Group&#62;_267">
<g id="&#60;Group&#62;_268">
<g id="&#60;Group&#62;_269">
<g id="&#60;Group&#62;_270">
<path id="&#60;Path&#62;_57" d="M28.2871 148.129C27.9296 148.129 27.5945 147.921 27.4455 147.578C27.2444 147.109 27.4604 146.573 27.9222 146.372C28.801 145.992 29.3 145.336 29.4788 144.301C30.5513 138.157 19.9826 123.469 17.6291 121.272C17.0183 120.699 16.4523 120.453 15.9607 120.535C15.0744 120.691 14.4563 121.823 14.4488 121.838C14.2179 122.285 13.6668 122.464 13.2124 122.233C12.7656 122.002 12.5868 121.443 12.8177 120.997C12.922 120.795 13.8753 119.038 15.6479 118.732C16.7353 118.546 17.8302 118.948 18.8803 119.939C21.1371 122.047 32.5399 137.419 31.2812 144.614C30.9982 146.245 30.0895 147.437 28.6446 148.055C28.5254 148.107 28.4063 148.129 28.2871 148.129Z" fill="#181818"/>
</g>
</g>
</g>
</g>
<g id="&#60;Group&#62;_271">
<g id="&#60;Group&#62;_272">
<g id="&#60;Group&#62;_273">
<g id="&#60;Group&#62;_274">
<path id="&#60;Path&#62;_58" d="M14.2658 127.829C13.871 127.829 13.5061 127.576 13.3869 127.181C13.2454 126.697 13.521 126.183 14.0051 126.034L21.3264 123.837C21.8105 123.688 22.317 123.963 22.466 124.448C22.6075 124.932 22.3319 125.438 21.8478 125.587L14.5264 127.792C14.442 127.816 14.3551 127.829 14.2658 127.829Z" fill="#181818"/>
</g>
</g>
</g>
</g>
<g id="&#60;Group&#62;_275">
<g id="&#60;Group&#62;_276">
<g id="&#60;Group&#62;_277">
<g id="&#60;Group&#62;_278">
<path id="&#60;Path&#62;_59" d="M16.559 133.239C16.1494 133.239 15.7844 132.971 15.6727 132.554C15.5461 132.07 15.8365 131.571 16.3281 131.437L24.2378 129.381C24.7294 129.254 25.2284 129.545 25.355 130.036C25.4817 130.52 25.1912 131.02 24.6996 131.154L16.7899 133.209C16.7104 133.229 16.6335 133.239 16.559 133.239Z" fill="#181818"/>
</g>
</g>
</g>
</g>
<g id="&#60;Group&#62;_279">
<g id="&#60;Group&#62;_280">
<g id="&#60;Group&#62;_281">
<g id="&#60;Group&#62;_282">
<path id="&#60;Path&#62;_60" d="M19.3661 138.133C18.949 138.133 18.5766 137.85 18.4723 137.432C18.3606 136.941 18.6585 136.449 19.1501 136.33L27.328 134.379C27.8195 134.26 28.3111 134.565 28.4303 135.057C28.5494 135.548 28.2441 136.04 27.7525 136.159L19.5746 138.11C19.5051 138.125 19.4356 138.133 19.3661 138.133Z" fill="#181818"/>
</g>
</g>
</g>
</g>
<g id="&#60;Group&#62;_283">
<g id="&#60;Group&#62;_284">
<g id="&#60;Group&#62;_285">
<g id="&#60;Group&#62;_286">
<path id="&#60;Path&#62;_61" d="M22.2811 143.449C21.8566 143.449 21.4842 143.158 21.3874 142.734C21.2757 142.235 21.5885 141.751 22.0801 141.639L29.2301 140.045C29.7217 139.933 30.2058 140.246 30.3175 140.738C30.4292 141.237 30.1164 141.721 29.6248 141.832L22.4748 143.426C22.4102 143.441 22.3457 143.449 22.2811 143.449Z" fill="#181818"/>
</g>
</g>
</g>
</g>
<g id="&#60;Group&#62;_287">
<g id="&#60;Group&#62;_288">
<g id="&#60;Group&#62;_289">
<g id="&#60;Group&#62;_290">
<path id="&#60;Path&#62;_62" d="M111.77 91.3734C111.77 91.3734 115.785 88.5209 118.749 84.6032C119.278 83.9031 120.313 83.8659 120.887 84.5213C121.996 85.78 123.501 87.9101 123.791 90.4201C123.896 91.3362 123.613 92.2449 123.069 92.9822C121.386 95.2464 117.111 100.676 113.297 102.717" fill="#F7F7F7"/>
</g>
</g>
</g>
</g>
<g id="&#60;Group&#62;_291">
<g id="&#60;Group&#62;_292">
<g id="&#60;Group&#62;_293">
<g id="&#60;Group&#62;_294">
<path id="&#60;Path&#62;_63" d="M49.1393 138.878C49.0946 138.878 49.05 138.873 49.0053 138.863C48.5063 138.788 48.1636 138.319 48.2381 137.82C50.0852 125.68 40.2763 118.374 40.172 118.306C39.7698 118.009 39.673 117.435 39.9709 117.025C40.2688 116.616 40.8423 116.526 41.2519 116.824C41.6914 117.145 52.0664 124.831 50.048 138.096C49.9735 138.55 49.5862 138.878 49.1393 138.878Z" fill="#181818"/>
</g>
</g>
</g>
</g>
<g id="&#60;Group&#62;_295">
<g id="&#60;Group&#62;_296">
<g id="&#60;Group&#62;_297">
<g id="&#60;Group&#62;_298">
<path id="&#60;Path&#62;_64" d="M51.9973 137.46C51.9824 137.46 51.97 137.46 51.9601 137.46C51.3568 137.438 50.8801 136.931 50.9025 136.328C51.3195 123.674 50.3364 112.569 50.3215 112.457C50.2694 111.854 50.7163 111.318 51.3195 111.265C51.9303 111.206 52.4591 111.653 52.5112 112.256C52.5187 112.368 53.5167 123.607 53.0922 136.402C53.0773 136.991 52.5857 137.46 51.9973 137.46Z" fill="#181818"/>
</g>
</g>
</g>
</g>
<g id="&#60;Group&#62;_299">
<g id="&#60;Group&#62;_300">
<g id="&#60;Group&#62;_301">
<g id="&#60;Group&#62;_302">
<path id="&#60;Path&#62;_65" d="M105.984 79.1639C111.511 83.5135 113.09 90.4103 113.812 97.0688C114.572 103.601 115.056 110.162 115.004 116.746C114.967 121.141 114.706 125.535 114.088 129.907C113.998 130.51 113.44 130.927 112.844 130.838C112.241 130.756 111.824 130.197 111.913 129.594C113.738 115.756 112.665 101.538 109.969 87.8929C109.157 84.8244 107.735 81.942 105.739 79.4395C105.664 79.3576 105.672 79.231 105.754 79.1639C105.821 79.1118 105.917 79.1118 105.984 79.1639Z" fill="#181818"/>
</g>
</g>
</g>
</g>
<g id="&#60;Group&#62;_303">
<g id="&#60;Group&#62;_304">
<g id="&#60;Group&#62;_305">
<g id="&#60;Group&#62;_306">
<path id="&#60;Path&#62;_66" d="M94.5147 129.107C94.5097 129.107 94.5022 129.107 94.4923 129.107C93.889 129.093 93.4049 128.593 93.4124 127.99C93.7773 108.268 87.4316 87.7936 87.3646 87.585C87.1859 87.0116 87.5061 86.3934 88.0871 86.2072C88.6606 86.0284 89.2787 86.3487 89.4575 86.9296C89.5245 87.1382 95.9744 107.955 95.6095 128.027C95.6021 128.631 95.1105 129.107 94.5147 129.107Z" fill="#181818"/>
</g>
</g>
</g>
</g>
<g id="&#60;Group&#62;_307">
<g id="&#60;Group&#62;_308">
<g id="&#60;Group&#62;_309">
<g id="&#60;Group&#62;_310">
<path id="&#60;Path&#62;_67" d="M75.8803 123.695C75.0163 123.695 74.1747 123.405 73.5044 122.868C67.978 118.392 63.5986 109.715 62.392 107.161C62.1314 106.602 62.0494 105.991 62.1537 105.388L62.7346 102.141C62.9283 101.024 63.7699 100.115 64.8722 99.817C77.0645 96.5399 89.1525 91.0359 89.2792 90.9763C89.8303 90.7231 90.4783 90.9688 90.7315 91.52C90.9847 92.0711 90.739 92.7191 90.1878 92.9723C90.0686 93.0319 77.8168 98.6105 65.4382 101.94C65.1627 102.014 64.9467 102.245 64.8945 102.528L64.3136 105.768C64.2913 105.924 64.3136 106.081 64.3806 106.222C65.1999 107.965 69.5868 116.865 74.8897 121.163C75.2174 121.431 75.6643 121.55 76.1112 121.483C78.6956 121.126 85.5775 119.904 93.7032 116.344C94.2618 116.106 94.9024 116.359 95.1481 116.91C95.3939 117.469 95.1407 118.117 94.5821 118.355C86.2106 122.027 79.0904 123.286 76.4165 123.658C76.2378 123.683 76.059 123.695 75.8803 123.695Z" fill="#181818"/>
</g>
</g>
</g>
</g>
<g id="&#60;Group&#62;_311">
<g id="&#60;Group&#62;_312">
<g id="&#60;Group&#62;_313">
<g id="&#60;Group&#62;_314">
<path id="&#60;Path&#62;_68" d="M63.2273 107.261C62.7208 107.261 62.2665 106.911 62.1548 106.397C62.0281 105.809 62.4005 105.221 62.9964 105.094C63.1304 105.064 76.7304 102.055 90.5389 96.1043C91.0901 95.866 91.738 96.1192 91.9764 96.6778C92.2222 97.2364 91.9615 97.8844 91.4029 98.1227C77.3933 104.156 63.5997 107.209 63.4656 107.239C63.3861 107.254 63.3067 107.261 63.2273 107.261Z" fill="#181818"/>
</g>
</g>
</g>
</g>
<g id="&#60;Group&#62;_315">
<g id="&#60;Group&#62;_316">
<g id="&#60;Group&#62;_317">
<g id="&#60;Group&#62;_318">
<g id="&#60;Group&#62;_319">
<path id="&#60;Path&#62;_69" d="M90.5015 108.925C90.5015 110.682 89.079 112.105 87.3213 112.105C85.5635 112.105 84.141 110.682 84.141 108.925C84.141 107.167 85.5635 105.744 87.3213 105.744C89.079 105.744 90.5015 107.167 90.5015 108.925Z" fill="#50CEFF"/>
</g>
</g>
</g>
</g>
<g id="&#60;Group&#62;_320" opacity="0.7">
<g id="&#60;Group&#62;_321">
<g id="&#60;Group&#62;_322">
<g id="&#60;Group&#62;_323">
<path id="&#60;Path&#62;_70" d="M87.3213 105.744C85.5635 105.744 84.141 107.167 84.141 108.925C84.141 109.736 84.4389 110.466 84.9379 111.032C84.923 110.913 84.9156 110.792 84.9156 110.667C84.9156 108.91 86.3381 107.487 88.0959 107.487C89.0492 107.487 89.8983 107.904 90.4792 108.567C90.3004 106.981 88.9524 105.744 87.3213 105.744Z" fill="white"/>
</g>
</g>
</g>
</g>
<g id="&#60;Group&#62;_324">
<g id="&#60;Group&#62;_325">
<g id="&#60;Group&#62;_326">
<g id="&#60;Group&#62;_327">
<path id="&#60;Compound Path&#62;_10" fill-rule="evenodd" clip-rule="evenodd" d="M87.3279 112.968C85.101 112.968 83.2837 111.151 83.2837 108.924C83.2837 106.697 85.101 104.887 87.3279 104.887C89.5549 104.887 91.3647 106.697 91.3647 108.924C91.3647 111.151 89.5549 112.968 87.3279 112.968ZM87.3279 106.608C86.0469 106.608 85.0042 107.643 85.0042 108.924C85.0042 110.205 86.0469 111.248 87.3279 111.248C88.609 111.248 89.6443 110.205 89.6443 108.924C89.6443 107.643 88.609 106.608 87.3279 106.608Z" fill="#181818"/>
</g>
</g>
</g>
</g>
</g>
<g id="&#60;Group&#62;_328">
<g id="&#60;Group&#62;_329">
<g id="&#60;Group&#62;_330">
<g id="&#60;Group&#62;_331">
<path id="&#60;Path&#62;_71" d="M85.5733 121.389C85.2605 121.389 84.9551 121.225 84.7838 120.935L81.2609 114.879C80.6949 113.904 79.6372 113.33 78.5126 113.382L76.6655 113.464C74.8259 113.554 73.1352 112.608 72.2265 111.014C70.6625 108.266 69.3144 104.869 69.2548 104.728C69.0686 104.259 69.2995 103.73 69.7687 103.544C70.2379 103.357 70.7742 103.588 70.9604 104.058C70.9753 104.087 72.3159 107.476 73.8129 110.105C74.379 111.103 75.4366 111.692 76.5836 111.64L78.4307 111.558C80.2331 111.468 81.9312 112.392 82.8399 113.956L86.3702 120.019C86.6234 120.451 86.4745 121.009 86.035 121.262C85.8935 121.352 85.7297 121.389 85.5733 121.389Z" fill="#181818"/>
</g>
</g>
</g>
</g>
<g id="&#60;Group&#62;_332">
<g id="&#60;Group&#62;_333">
<g id="&#60;Group&#62;_334">
<g id="&#60;Group&#62;_335">
<path id="&#60;Path&#62;_72" d="M63.7152 101.604C63.2162 100.673 62.1511 99.3171 61.5404 98.4383C60.7435 97.3508 59.9316 96.2709 59.1198 95.1909C59.0602 95.109 59.0751 94.9973 59.157 94.9377C59.2315 94.8781 59.3283 94.8856 59.3954 94.9452C60.386 95.8613 61.3765 96.7848 62.3597 97.7158C62.8512 98.185 64.1025 99.3767 64.5568 99.8534C64.7356 100.032 64.9367 100.248 65.1154 100.449C66.2773 101.626 64.4972 103.011 63.7152 101.604Z" fill="#181818"/>
</g>
</g>
</g>
</g>
<g id="&#60;Group&#62;_336">
<g id="&#60;Group&#62;_337">
<g id="&#60;Group&#62;_338">
<g id="&#60;Group&#62;_339">
<path id="&#60;Path&#62;_73" d="M70.7325 131.034C70.6729 131.034 70.6133 131.029 70.5537 131.019C69.9579 130.923 69.5483 130.364 69.6451 129.761C69.6525 129.701 70.6953 123.05 70.3005 119.401C70.2335 118.797 70.6655 118.261 71.2688 118.194C71.872 118.127 72.4157 118.567 72.4828 119.162C72.9147 123.102 71.8571 129.828 71.8125 130.111C71.7305 130.647 71.2613 131.034 70.7325 131.034Z" fill="#181818"/>
</g>
</g>
</g>
</g>
<g id="&#60;Group&#62;_340">
<g id="&#60;Group&#62;_341">
<g id="&#60;Group&#62;_342">
<g id="&#60;Group&#62;_343">
<path id="&#60;Path&#62;_74" d="M101.733 67.6342C103.9 65.7499 106.157 63.9549 108.689 62.5845C108.779 62.5398 108.891 62.5696 108.935 62.659C108.98 62.7409 108.958 62.8377 108.891 62.8899C107.826 63.7911 106.872 64.8114 105.949 65.8542C105.055 66.8969 104.161 67.9992 103.357 69.1015C102.351 70.3676 100.571 68.7663 101.733 67.6342Z" fill="#181818"/>
</g>
</g>
</g>
</g>
<g id="&#60;Group&#62;_344">
<g id="&#60;Group&#62;_345">
<g id="&#60;Group&#62;_346">
<g id="&#60;Group&#62;_347">
<path id="&#60;Path&#62;_75" d="M113.3 103.804C112.913 103.804 112.533 103.595 112.332 103.223C112.049 102.694 112.25 102.024 112.786 101.741C116.406 99.8043 120.569 94.5088 122.193 92.3191C122.588 91.7829 122.774 91.1498 122.699 90.5391C122.454 88.3494 121.128 86.4502 120.063 85.2361C119.996 85.1542 119.906 85.1468 119.847 85.1468C119.78 85.1468 119.698 85.1691 119.631 85.2585C116.592 89.2655 112.578 92.1404 112.406 92.267C111.915 92.6171 111.229 92.4979 110.879 92.0063C110.529 91.5148 110.641 90.8296 111.133 90.4721C111.177 90.4497 115.05 87.6642 117.88 83.9328C118.327 83.3369 119.013 82.9794 119.765 82.9496C120.51 82.9198 121.217 83.2252 121.716 83.7838C122.99 85.2287 124.569 87.5301 124.882 90.2859C125.016 91.4552 124.688 92.6469 123.951 93.63C122.245 95.9389 117.828 101.532 113.821 103.677C113.657 103.767 113.479 103.804 113.3 103.804Z" fill="#181818"/>
</g>
</g>
</g>
</g>
<g id="&#60;Group&#62;_348">
<g id="&#60;Group&#62;_349">
<g id="&#60;Group&#62;_350">
<g id="&#60;Group&#62;_351">
<path id="&#60;Path&#62;_76" d="M71.1007 128.059C70.8922 128.059 70.6762 127.985 70.5049 127.836C61.8504 120.395 52.9575 126.309 52.5776 126.57C52.1606 126.853 51.5945 126.749 51.3115 126.332C51.021 125.914 51.1327 125.341 51.5424 125.058C51.6467 124.983 61.9546 118.079 71.6966 126.451C72.0838 126.778 72.1285 127.352 71.8008 127.739C71.6146 127.948 71.3614 128.059 71.1007 128.059Z" fill="#181818"/>
</g>
</g>
</g>
</g>
<g id="&#60;Group&#62;_352">
<g id="&#60;Group&#62;_353">
<g id="&#60;Group&#62;_354">
<g id="&#60;Group&#62;_355">
<path id="&#60;Path&#62;_77" d="M113.594 125.282C113.371 125.282 113.14 125.2 112.968 125.029C106.243 118.616 95.0486 123.971 94.9369 124.023C94.4826 124.247 93.9314 124.06 93.708 123.606C93.492 123.152 93.6782 122.601 94.1325 122.385C94.6316 122.131 106.578 116.411 114.227 123.703C114.592 124.053 114.607 124.634 114.257 124.999C114.078 125.185 113.84 125.282 113.594 125.282Z" fill="#181818"/>
</g>
</g>
</g>
</g>
<g id="&#60;Group&#62;_356">
<g id="&#60;Group&#62;_357">
<g id="&#60;Group&#62;_358">
<g id="&#60;Group&#62;_359">
<path id="&#60;Path&#62;_78" d="M83.1708 128.616L79.1638 124.512C79.0223 124.371 79.2085 124.117 79.3873 124.214L84.4742 126.851C85.9489 127.73 84.4295 129.77 83.1708 128.616Z" fill="#181818"/>
</g>
</g>
</g>
</g>
<g id="&#60;Group&#62;_360" opacity="0.2">
<g id="&#60;Group&#62;_361">
<g id="&#60;Group&#62;_362">
<g id="&#60;Group&#62;_363">
<path id="&#60;Path&#62;_79" d="M52.0868 123.576V130.122L51.8633 136.826L33.5339 147.052C33.5339 147.052 28.4693 150.351 22.9801 143.76C20.1648 140.378 17.2229 135.381 15.4056 130.659C27.0393 153.151 34.9341 132.766 34.9341 132.766C45.1155 129.221 52.0868 123.576 52.0868 123.576Z" fill="#181818"/>
</g>
</g>
</g>
</g>
<g id="&#60;Group&#62;_364" opacity="0.2">
<g id="&#60;Group&#62;_365">
<g id="&#60;Group&#62;_366">
<g id="&#60;Group&#62;_367">
<path id="&#60;Path&#62;_80" d="M72.1301 142.604C73.0089 145.129 70.6852 147.601 68.0933 146.916L65.5684 146.253C72.3386 142.835 62.0902 132.981 62.0902 132.981C64.414 122.874 63.5947 107.867 63.5947 107.867L66.7303 114.287L72.927 120.997C72.927 120.997 73.359 124.319 74.074 128.728C72.8823 128.952 71.5739 129.212 70.1489 129.51L69.6871 138.381C69.6871 138.381 71.3778 140.414 72.1301 142.604Z" fill="#181818"/>
</g>
</g>
</g>
</g>
<g id="&#60;Group&#62;_368" opacity="0.2">
<g id="&#60;Group&#62;_369">
<g id="&#60;Group&#62;_370">
<g id="&#60;Group&#62;_371">
<path id="&#60;Path&#62;_81" d="M66.1444 146.679C61.3405 155.55 49.4982 154.06 49.9675 146.165C50.1388 146.322 50.3026 146.486 50.4665 146.679C57.1771 154.246 64.5208 142.538 64.5208 142.538L66.1444 146.679Z" fill="#181818"/>
</g>
</g>
</g>
</g>
<g id="&#60;Group&#62;_372" opacity="0.2">
<g id="&#60;Group&#62;_373">
<g id="&#60;Group&#62;_374">
<g id="&#60;Group&#62;_375">
<path id="&#60;Path&#62;_82" d="M70.1106 116.69C79.8823 119.923 87.5463 118.724 86.5557 99.2993L87.4569 93.3856L90.2201 91.9705C90.2201 91.9705 94.8825 107.149 94.9421 116.668C94.9421 116.668 83.6659 122.656 75.853 122.41" fill="#181818"/>
</g>
</g>
</g>
</g>
<g id="&#60;Group&#62;_376" opacity="0.2">
<g id="&#60;Group&#62;_377">
<g id="&#60;Group&#62;_378">
<g id="&#60;Group&#62;_379">
<path id="&#60;Path&#62;_83" d="M116.866 85.167C116.866 85.167 116.359 86.6864 113.619 89.3602C110.87 92.0415 112.204 98.4318 112.204 98.4318C114.416 105.82 112.956 125.215 112.956 125.215L112.65 129.84L112.271 135.344V135.351L112.248 137.161C112.248 137.161 115.987 146.806 110.647 151.722C108.71 153.502 105.821 153.793 103.534 152.497C102.022 151.648 100.25 150.18 98.6036 147.678C98.5688 147.628 98.5316 147.578 98.4918 147.529C103.914 151.685 114.103 143.946 105.225 137.228C108.219 122.802 107.422 95.9815 101.91 84.0498C96.8384 73.0716 87.0965 80.9366 85.5696 82.2623C92.5707 75.9763 97.3374 66.7855 97.3374 66.7855C108.844 71.0755 116.866 85.167 116.866 85.167Z" fill="#181818"/>
</g>
</g>
</g>
</g>
<g id="&#60;Group&#62;_380" opacity="0.2">
<g id="&#60;Group&#62;_381">
<g id="&#60;Group&#62;_382">
<g id="&#60;Group&#62;_383">
<path id="&#60;Path&#62;_84" d="M164.461 126.107C164.573 137.822 154.064 152.979 145.163 150.484C145.163 150.484 138.944 147.862 127.691 135.968C127.691 135.968 120.615 132.169 113.755 129.853L114.068 118.688C115.677 126.188 129.18 130.598 129.18 130.598C129.18 130.598 136.382 139.744 143.949 140.727C151.509 141.71 156.268 131.819 152.12 125.958C147.979 120.089 139.98 125.958 139.98 125.958L121.159 106.399L117.911 99.0779L113.413 103.025L112.862 100.091C122.47 91.3097 115.424 88.1964 115.424 88.1964L117.978 85.0981C118.023 85.1651 118.06 85.2247 118.098 85.2917C118.41 84.9342 118.82 84.532 119.341 84.1075C121.01 82.7445 122.447 86.3344 122.447 86.3344C125.069 89.7977 123.721 92.5907 122.976 93.6781C122.976 93.6831 122.976 93.6856 122.976 93.6856C125.56 98.2661 127.415 101.744 127.415 101.744L145.901 122.606C145.901 122.606 152.82 113.907 161.549 120.342C163.381 121.697 164.446 123.827 164.461 126.107Z" fill="#181818"/>
</g>
</g>
</g>
</g>
<g id="&#60;Group&#62;_384" opacity="0.2">
<g id="&#60;Group&#62;_385">
<g id="&#60;Group&#62;_386">
<g id="&#60;Group&#62;_387">
<path id="&#60;Path&#62;_85" d="M136.732 112.663L136.523 112.745L126.789 101.185L122.707 93.7897L123.534 91.9724L122.812 90.9073C122.812 90.9073 137.104 93.5513 132.278 74.1196V74.127C135.049 78.7895 139.86 86.6545 139.86 86.6545C139.86 86.6545 142.147 90.803 138.49 92.9406C138.49 92.9406 144.575 108.753 136.732 112.663Z" fill="#181818"/>
</g>
</g>
</g>
</g>
<g id="&#60;Group&#62;_388" opacity="0.2">
<g id="&#60;Group&#62;_389">
<g id="&#60;Group&#62;_390">
<g id="&#60;Group&#62;_391">
<path id="&#60;Path&#62;_86" d="M111.769 57.2422C111.769 57.2422 120.431 71.1252 109.304 73.5756L112.73 76.7633L114.518 77.8507C114.518 77.8507 119.851 70.4623 125.057 69.6505C125.057 69.6505 122.055 63.6326 119.344 61.8227" fill="#181818"/>
</g>
</g>
</g>
</g>
</g>
<g id="&#60;Group&#62;_392">
<g id="&#60;Group&#62;_393">
<g id="&#60;Group&#62;_394">
<g id="&#60;Group&#62;_395">
<g id="&#60;Group&#62;_396">
<path id="&#60;Path&#62;_87" d="M171.348 172.707L172.249 173.817C173.016 174.77 172.152 176.155 170.953 175.887L169.27 175.508C168.451 175.329 167.602 175.664 167.125 176.357L166.403 177.437C165.695 178.472 164.079 178.003 164.042 176.751L164.012 175.895C163.982 174.964 163.327 174.174 162.418 173.966L161.331 173.727C160.117 173.452 159.953 171.784 161.1 171.277L162.552 170.637C163.319 170.301 163.803 169.534 163.773 168.7L163.721 166.957C163.684 165.721 165.241 165.14 166.023 166.108L166.835 167.114C167.416 167.829 168.399 168.074 169.248 167.702L170.477 167.158C171.661 166.637 172.793 168 172.063 169.072L171.251 170.279C170.745 171.024 170.782 172.007 171.348 172.707Z" fill="#39FFA5"/>
</g>
</g>
</g>
</g>
<g id="&#60;Group&#62;_397">
<g id="&#60;Group&#62;_398">
<g id="&#60;Group&#62;_399">
<g id="&#60;Group&#62;_400">
<path id="&#60;Path&#62;_88" d="M11.7455 164.557L12.4083 165.823C12.9669 166.911 11.8423 168.103 10.7251 167.596L9.15359 166.889C8.38645 166.546 7.48525 166.702 6.88196 167.291L5.95097 168.199C5.05721 169.078 3.56762 168.296 3.77616 167.06L3.91767 166.218C4.07408 165.302 3.58996 164.393 2.7409 164.006L1.72798 163.552C0.595886 163.045 0.767189 161.377 1.98865 161.109L3.54527 160.774C4.36455 160.602 4.99018 159.947 5.13169 159.12L5.42216 157.4C5.6307 156.178 7.2767 155.925 7.84275 157.027L8.43858 158.174C8.86312 158.994 9.78666 159.426 10.6879 159.232L11.9987 158.949C13.2649 158.673 14.099 160.23 13.1755 161.139L12.1328 162.159C11.4922 162.785 11.3358 163.76 11.7455 164.557Z" fill="#39FFA5"/>
</g>
</g>
</g>
</g>
<g id="&#60;Group&#62;_401">
<g id="&#60;Group&#62;_402">
<g id="&#60;Group&#62;_403">
<g id="&#60;Group&#62;_404">
<path id="&#60;Compound Path&#62;_11" fill-rule="evenodd" clip-rule="evenodd" d="M165.35 178.926C165.134 178.926 164.926 178.896 164.71 178.836C163.764 178.561 163.138 177.749 163.108 176.773L163.078 175.917C163.064 175.41 162.706 174.978 162.207 174.867L161.127 174.628C160.174 174.412 159.496 173.645 159.399 172.669C159.31 171.694 159.824 170.815 160.717 170.42L162.177 169.78C162.594 169.593 162.862 169.184 162.848 168.722L162.788 166.979C162.758 166.011 163.324 165.162 164.24 164.827C165.149 164.484 166.132 164.76 166.743 165.512L167.555 166.517C167.868 166.912 168.411 167.046 168.873 166.838L170.094 166.301C171.011 165.899 172.061 166.145 172.701 166.912C173.342 167.679 173.394 168.759 172.835 169.586L172.016 170.792C171.74 171.202 171.763 171.731 172.068 172.118L172.969 173.221C173.573 173.973 173.632 174.978 173.126 175.798C172.619 176.609 171.688 177.004 170.75 176.788L169.059 176.408C168.612 176.311 168.158 176.49 167.897 176.87L167.167 177.95C166.743 178.576 166.065 178.926 165.35 178.926ZM165.022 166.547C164.97 166.547 164.918 166.555 164.888 166.57C164.792 166.607 164.643 166.696 164.65 166.92L164.702 168.662C164.747 169.884 164.047 170.994 162.93 171.485L161.47 172.126C161.261 172.215 161.246 172.394 161.254 172.491C161.261 172.587 161.313 172.759 161.537 172.811L162.617 173.049C163.942 173.347 164.896 174.502 164.94 175.857L164.963 176.714C164.97 176.937 165.134 177.019 165.223 177.049C165.32 177.071 165.499 177.093 165.626 176.9L166.356 175.827C167.048 174.807 168.27 174.323 169.469 174.591L171.16 174.971C171.375 175.023 171.495 174.896 171.547 174.814C171.599 174.732 171.659 174.569 171.517 174.397L170.623 173.288C169.797 172.26 169.737 170.837 170.474 169.75L171.294 168.543C171.428 168.342 171.338 168.186 171.271 168.104C171.204 168.029 171.063 167.91 170.847 168.007L169.618 168.543C168.389 169.087 166.944 168.737 166.102 167.687L165.291 166.681C165.209 166.577 165.104 166.547 165.022 166.547Z" fill="#181818"/>
</g>
</g>
</g>
</g>
<g id="&#60;Group&#62;_405">
<g id="&#60;Group&#62;_406">
<g id="&#60;Group&#62;_407">
<g id="&#60;Group&#62;_408">
<path id="&#60;Compound Path&#62;_12" fill-rule="evenodd" clip-rule="evenodd" d="M5.06698 169.513C4.70948 169.513 4.35198 169.423 4.02427 169.245C3.15286 168.79 2.69854 167.874 2.86239 166.906L3.0039 166.064C3.09327 165.565 2.82515 165.066 2.36338 164.858L1.35045 164.403C0.456697 164.009 -0.0497615 163.115 0.0545099 162.147C0.151333 161.171 0.836543 160.411 1.79733 160.203L3.35395 159.868C3.80083 159.771 4.13599 159.421 4.21047 158.966L4.50839 157.246C4.67224 156.293 5.39469 155.578 6.35548 155.421C7.31627 155.28 8.22492 155.734 8.6718 156.598L9.26763 157.752C9.49852 158.199 10.005 158.43 10.4965 158.326L11.8074 158.043C12.7831 157.834 13.7587 158.281 14.2354 159.16C14.7046 160.046 14.5408 161.104 13.8258 161.804L12.7905 162.824C12.433 163.167 12.3511 163.696 12.5745 164.135L13.2299 165.401C13.6768 166.251 13.5353 167.256 12.8724 167.949C12.217 168.649 11.2264 168.842 10.3476 168.448L8.76862 167.74C8.35153 167.554 7.86741 167.636 7.53226 167.964L6.60871 168.872C6.17673 169.289 5.62558 169.513 5.06698 169.513ZM6.71298 157.261C6.68815 157.261 6.66581 157.263 6.64595 157.268C6.54913 157.283 6.37782 157.335 6.34058 157.559L6.05012 159.279C5.84157 160.486 4.94037 161.432 3.74125 161.692L2.18462 162.028C1.96119 162.072 1.9165 162.244 1.9016 162.34C1.89415 162.437 1.90905 162.616 2.11759 162.705L3.12307 163.16C4.36688 163.718 5.06699 165.044 4.8361 166.377L4.69459 167.219C4.65735 167.442 4.79886 167.554 4.88823 167.599C4.97016 167.643 5.14146 167.695 5.30532 167.539L6.23631 166.63C7.11517 165.766 8.41112 165.536 9.53576 166.042L11.1147 166.75C11.3158 166.846 11.4573 166.742 11.5244 166.675C11.5914 166.601 11.6808 166.452 11.5839 166.258L10.9211 164.992C10.3178 163.823 10.5412 162.415 11.4871 161.491L12.5298 160.478C12.6937 160.307 12.6416 160.136 12.5894 160.046C12.5447 159.957 12.4256 159.816 12.1947 159.86L10.8838 160.143C9.58044 160.434 8.23237 159.793 7.61419 158.609L7.01835 157.455C6.93642 157.298 6.8098 157.261 6.71298 157.261Z" fill="#181818"/>
</g>
</g>
</g>
</g>
</g>
</g>
</g>
</g>
</svg>
