<svg width="56" height="44" viewBox="0 0 56 44" fill="none" xmlns="http://www.w3.org/2000/svg">
	<path d="M50.5548 3.08679H17.8939L17.9939 3.33876L20.4343 9.4065L50.2166 9.43055C50.2166 9.43055 51.2956 9.49143 51.895 9.62664L51.8328 9.60442V4.36326C51.8328 3.65738 51.2606 3.08679 50.5548 3.08679Z" fill="#559D7C"/>
	<path d="M50.2165 9.4305L20.4342 9.40645L17.9938 3.33871L16.9619 0.770996H2.70712C1.21078 0.770996 0 1.9823 0 3.47873V40.4977C0 41.9922 1.21078 43.2051 2.70712 43.2051H53.2912C54.7874 43.2051 56 41.9922 56 40.4977V15.0263C56 12.4547 54.2577 10.2908 51.8949 9.62658C51.2955 9.49137 50.2165 9.4305 50.2165 9.4305ZM55.3989 37.1567V39.1771H0.605217V37.1567H55.3989Z" fill="#282727"/>
	<path d="M55.3989 37.1567H0.605225V39.1771H55.3989V37.1567Z" fill="#176D46"/>
</svg>
