<svg width="514" height="237" viewBox="0 0 514 237" fill="none" xmlns="http://www.w3.org/2000/svg">
<path fill-rule="evenodd" clip-rule="evenodd" d="M286.299 89.0992L270.217 74.5011V89.0992H286.299ZM261.696 70.032V61.2511H199.876V164.22H209.121V71.4067C209.121 70.6463 209.735 70.0319 210.495 70.0319H261.701L261.696 70.032ZM219.521 97.4375C218.76 97.4375 218.146 96.823 218.146 96.0626C218.146 95.3023 218.76 94.6878 219.521 94.6878H236.249C237.01 94.6878 237.624 95.3023 237.624 96.0626C237.624 96.823 237.01 97.4375 236.249 97.4375H219.521ZM219.521 120.379C218.76 120.379 218.146 119.765 218.146 119.004C218.146 118.244 218.76 117.629 219.521 117.629H261.738C262.498 117.629 263.112 118.244 263.112 119.004C263.112 119.765 262.498 120.379 261.738 120.379H219.521ZM219.521 109.979C218.76 109.979 218.146 109.364 218.146 108.604C218.146 107.843 218.76 107.229 219.521 107.229H263.212C263.973 107.229 264.587 107.843 264.587 108.604C264.587 109.364 263.972 109.979 263.212 109.979H219.521ZM219.521 130.775C218.76 130.775 218.146 130.161 218.146 129.4C218.146 128.64 218.76 128.025 219.521 128.025H264.935C265.695 128.025 266.31 128.64 266.31 129.4C266.31 130.161 265.695 130.775 264.935 130.775L219.525 130.78L219.521 130.775ZM219.521 141.671C218.76 141.671 218.146 141.056 218.146 140.296C218.146 139.535 218.76 138.921 219.521 138.921H239.728C240.488 138.921 241.103 139.535 241.103 140.296C241.103 141.056 240.488 141.671 239.728 141.671H219.521ZM219.521 160.982C218.76 160.982 218.146 160.367 218.146 159.607C218.146 158.846 218.76 158.232 219.521 158.232H232.109C232.869 158.232 233.484 158.847 233.484 159.607C233.484 160.367 232.869 160.982 232.109 160.982H219.521ZM268.232 160.982C267.472 160.982 266.857 160.367 266.857 159.607C266.857 158.846 267.472 158.232 268.232 158.232H280.82C281.58 158.232 282.195 158.847 282.195 159.607C282.195 160.367 281.58 160.982 280.82 160.982H268.232ZM281.356 118.431C280.815 117.905 280.804 117.036 281.33 116.494C281.856 115.952 282.726 115.942 283.268 116.468L287.096 120.192L293.346 110.739C293.762 110.109 294.611 109.937 295.247 110.354C295.877 110.77 296.049 111.619 295.632 112.255C294.866 113.411 288.554 123.036 288.309 123.286C287.783 123.827 286.913 123.838 286.372 123.312L281.357 118.437L281.356 118.431ZM281.481 104.599L281.476 104.604C278.075 106.515 275.773 109.625 274.799 113.109C272.695 120.619 277.081 128.415 284.591 130.52C292.101 132.624 299.897 128.239 302.002 120.729C302.976 117.25 302.627 113.396 300.716 110C296.924 103.219 288.289 100.782 281.482 104.604L281.481 104.599ZM282.877 106.963C282.841 106.989 282.799 107.01 282.757 107.031C280.049 108.572 278.216 111.062 277.44 113.848C275.747 119.895 279.284 126.181 285.33 127.874C291.377 129.568 297.663 126.031 299.356 119.984C301.049 113.937 297.513 107.651 291.466 105.958C288.68 105.177 285.602 105.453 282.878 106.968L282.877 106.963ZM278.2 98.7708H278.195C273.185 101.588 269.794 106.172 268.357 111.301C265.258 122.364 271.721 133.853 282.783 136.951C284.627 137.467 286.543 137.732 288.47 137.727V175.752L211.87 175.747V72.7819H267.466V90.4785C267.466 91.2389 268.08 91.8534 268.841 91.8534H288.48V96.1032C284.996 96.0876 281.459 96.9469 278.21 98.775L278.2 98.7708ZM279.601 101.135C279.565 101.161 279.523 101.182 279.482 101.203C275.164 103.651 272.242 107.614 271.003 112.046C268.315 121.65 273.925 131.624 283.528 134.316C293.064 136.988 303.085 131.472 305.798 121.791C308.485 112.192 302.871 102.207 293.273 99.5208C288.736 98.25 283.835 98.7812 279.601 101.14L279.601 101.135ZM303.522 131.217L315.75 149.492C318.188 153.138 316.433 158.132 312.537 159.971C309.074 161.601 304.61 160.445 302.928 156.872H302.923L293.6 137.07C292.809 137.273 292.017 137.429 291.215 137.539V177.125C291.215 177.886 290.6 178.5 289.84 178.5L210.494 178.495C209.734 178.495 209.119 177.88 209.119 177.12V166.964H198.505C197.745 166.964 197.13 166.35 197.13 165.589V59.8749C197.13 59.1145 197.745 58.5 198.505 58.5H263.076C263.836 58.5 264.451 59.1146 264.451 59.8749V70.0307H268.846C269.232 70.0307 269.581 70.187 269.825 70.4422L290.721 89.4054C291.033 89.6554 291.231 90.0408 291.231 90.4783V96.2958C303.71 98.0145 311.855 110.353 308.444 122.529C307.543 125.743 305.876 128.737 303.527 131.222L303.522 131.217ZM305.542 139.159L299.314 142.753L305.407 155.695H305.402C307.032 159.111 312.792 158.627 313.964 154.393C314.282 153.242 314.146 152.018 313.474 151.013L305.542 139.159ZM298.147 140.268L296.23 136.196C298.126 135.425 299.897 134.378 301.485 133.097L304.016 136.883L298.147 140.274V140.268Z" fill="white"/>
</svg>
